<svg id="图层_1" data-name="图层 1" xmlns="http://www.w3.org/2000/svg" viewBox="0 0 24 24"><defs><style>.cls-1{fill:#5fd3bf;}.cls-2{fill:#fff;}</style></defs><title>icon4</title><circle class="cls-1" cx="12" cy="12" r="12"/><path class="cls-2" d="M19.82,7.75,16.25,4.19A.64.64,0,0,0,15.82,4H4.62A.62.62,0,0,0,4,4.62V19.38a.62.62,0,0,0,.62.61H19.38a.62.62,0,0,0,.62-.61V8.19a.61.61,0,0,0-.18-.44ZM16.19,5.86h0l2,2h-2v-2ZM7.58,18.77H5.23V5.24H7.58V18.77Zm11.19,0h-10V17.53h6a.37.37,0,0,0,.38-.37V12.64a.37.37,0,0,0-.38-.36.36.36,0,0,0-.37.36v4.15H12.65V13.07a.36.36,0,0,0-.37-.36H9.84a.37.37,0,0,0-.37.36v3.72H8.81V10l2.25-2.26L16.3,13a.38.38,0,0,0,.52,0,.37.37,0,0,0,0-.52l-5.5-5.5a.36.36,0,0,0-.52,0l-2,2V5.24h6.63v3a.37.37,0,0,0,.37.36h3V18.77Zm-8.55-2h0V13.44h1.69v3.33Z"/></svg>