<svg id="图层_1" data-name="图层 1" xmlns="http://www.w3.org/2000/svg" viewBox="0 0 24 24"><defs><style>.cls-1{fill:#ffaa9c;}.cls-2{fill:#fff;}</style></defs><title>icon2</title><circle class="cls-1" cx="12" cy="12" r="12"/><path class="cls-2" d="M14.25,14.32a1.27,1.27,0,0,0-.36-.88,1.26,1.26,0,0,0-.83-.36H11a.44.44,0,0,1-.3-.13.42.42,0,0,1-.13-.29v-.42h0v-.48h0v-.42a.43.43,0,0,1,.13-.3.44.44,0,0,1,.3-.13h2a.44.44,0,0,1,.3.13.41.41,0,0,1,.12.3.41.41,0,0,0,.81,0,1.26,1.26,0,0,0-.36-.88,1.25,1.25,0,0,0-.87-.37H12.4V9.74a.4.4,0,0,0-.4-.41.41.41,0,0,0-.42.41v.35H11a1.29,1.29,0,0,0-.88.37,1.27,1.27,0,0,0-.37.88v.42h0v.48h0v.42a1.23,1.23,0,0,0,.37.87,1.25,1.25,0,0,0,.83.37H13a.41.41,0,0,1,.29.13.43.43,0,0,1,.13.3v1.33a.43.43,0,0,1-.12.29.42.42,0,0,1-.3.13H11a.42.42,0,0,1-.3-.13.46.46,0,0,1-.13-.29.41.41,0,0,0-.4-.41.41.41,0,0,0-.42.41,1.23,1.23,0,0,0,.37.87,1.26,1.26,0,0,0,.88.36h.6v.35a.41.41,0,0,0,.42.41.4.4,0,0,0,.4-.41v-.35H13a1.24,1.24,0,0,0,.87-.36,1.21,1.21,0,0,0,.36-.87V14.32Zm5.6,5.42h0a6.24,6.24,0,0,1-.88-1.8,7.24,7.24,0,0,1-.38-2.12V12.61A6.56,6.56,0,0,0,16.65,8a6.43,6.43,0,0,0-2.13-1.43,6.14,6.14,0,0,0-1.15-.35l1.87-1.86a.71.71,0,0,0,.19-.48.67.67,0,0,0-.68-.68H9.25a.68.68,0,0,0-.48,1.16l1.86,1.86a6,6,0,0,0-1.15.35A6.54,6.54,0,0,0,7.35,8a6.54,6.54,0,0,0-1.93,4.65v3.21A7.1,7.1,0,0,1,5,17.94a5.93,5.93,0,0,1-.86,1.76.7.7,0,0,0-.17.45.67.67,0,0,0,.67.69H19.32a.68.68,0,0,0,.53-1.1ZM13.11,4.51h0L12,5.62,10.89,4.51Zm-7.23,15h0a10.2,10.2,0,0,0,.44-1.12,8.54,8.54,0,0,0,.45-2.54V12.61a5.07,5.07,0,0,1,.4-2,5.23,5.23,0,0,1,1.14-1.7A5.09,5.09,0,0,1,12,7.4h0a5.09,5.09,0,0,1,2,.38,5.33,5.33,0,0,1,1.68,1.13,5.22,5.22,0,0,1,1.54,3.69v3.21a8.54,8.54,0,0,0,.44,2.54,11.29,11.29,0,0,0,.45,1.12Z"/></svg>