<svg id="图层_1" data-name="图层 1" xmlns="http://www.w3.org/2000/svg" viewBox="0 0 24 24"><defs><style>.cls-1{fill:#ce6189;}.cls-2{fill:#fff;}</style></defs><title>icon6</title><circle class="cls-1" cx="12" cy="12" r="12"/><path class="cls-2" d="M19.37,4H4.63A.63.63,0,0,0,4,4.68V18.08a.63.63,0,0,0,.63.63h1.2v.61a.63.63,0,0,0,1.26,0v-.61h9.82v.61a.63.63,0,0,0,1.26,0v-.61h1.19a.63.63,0,0,0,.63-.63V4.68A.63.63,0,0,0,19.37,4Zm-.63,13.41H5.26V5.3H18.74V17.45Zm-4.55-4.27h0a1.81,1.81,0,0,0,1.25-.51l0,0a1.8,1.8,0,0,0,0-2.55h0a1.81,1.81,0,1,0-1.28,3.08Zm-.74-2.55h0a1.06,1.06,0,0,1,.74-.31,1,1,0,0,1,.74.31h0a1.05,1.05,0,0,1,0,1.49l0,0a1.05,1.05,0,0,1-1.46-1.51ZM12,13.57h0a3.1,3.1,0,1,0,0-4.41l0,0a3.11,3.11,0,0,0,0,4.39Zm.53-3.85h0l0,0a2.35,2.35,0,1,1,0,3.34h0a2.35,2.35,0,0,1,0-3.32ZM6.86,14.51h0l0,0a1.18,1.18,0,0,0,0,1.67h0a1.17,1.17,0,0,0,1.64,0l0,0a1.18,1.18,0,0,0,0-1.67h0A1.21,1.21,0,0,0,8,14.25v-6A1.21,1.21,0,0,0,8.5,8h0a1.18,1.18,0,0,0,0-1.67h0a1.17,1.17,0,0,0-1.66,0h0A1.18,1.18,0,0,0,6.83,8h0a1.21,1.21,0,0,0,.45.28v6a1.18,1.18,0,0,0-.43.26Zm.39-7.37h0a.43.43,0,0,1,.12-.3h0a.43.43,0,0,1,.3-.12.44.44,0,0,1,.3.12H8a.43.43,0,0,1,0,.6H8a.43.43,0,0,1-.3.12.41.41,0,0,1-.3-.12h0a.43.43,0,0,1-.12-.3Zm.12,7.93h0v0a.42.42,0,0,1,.27-.11h0a.43.43,0,0,1,.29.12H8a.42.42,0,0,1,.12.3.43.43,0,0,1-.12.3H8a.43.43,0,0,1-.28.11.41.41,0,0,1-.3-.12.44.44,0,0,1-.12-.3.42.42,0,0,1,.12-.3Z"/></svg>