<svg id="图层_1" data-name="图层 1" xmlns="http://www.w3.org/2000/svg" viewBox="0 0 60 60"><defs><style>.cls-1{fill:#e0e0d1;}.cls-2{fill:#231f20;}.cls-3{fill:#4f5d73;}.cls-4{fill:#c75c5c;}.cls-5{fill:#f5cf87;}</style></defs><title>公文包</title><path class="cls-1" d="M70.3,100a30,30,0,1,0,30-30A30,30,0,0,0,70.3,100Z" transform="translate(-70.3 -70)"/><path class="cls-2" d="M119,111.2a3.69,3.69,0,0,1-3.7,3.7h-30a3.69,3.69,0,0,1-3.7-3.7V94.4a3.69,3.69,0,0,1,3.7-3.7h30a3.69,3.69,0,0,1,3.7,3.7v16.8Z" transform="translate(-70.3 -70)"/><path class="cls-3" d="M105.9,85.9v18.8H94.6V85.9h11.3m0-3.7H94.6a3.69,3.69,0,0,0-3.7,3.7v18.8a3.69,3.69,0,0,0,3.7,3.7h11.2a3.69,3.69,0,0,0,3.7-3.7V85.9A3.49,3.49,0,0,0,105.9,82.2Z" transform="translate(-70.3 -70)"/><path class="cls-4" d="M81.5,97.2v12.2a3.69,3.69,0,0,0,3.7,3.7h30a3.69,3.69,0,0,0,3.7-3.7V97.2Z" transform="translate(-70.3 -70)"/><path class="cls-5" d="M104,96.2V99H96.5V96.2H104m0-3.7H96.5a3.69,3.69,0,0,0-3.7,3.7V99a3.69,3.69,0,0,0,3.7,3.7H104a3.69,3.69,0,0,0,3.7-3.7V96.2A3.63,3.63,0,0,0,104,92.5Z" transform="translate(-70.3 -70)"/><path class="cls-2" d="M119,94.4a3.69,3.69,0,0,0-3.7-3.7h-30a3.69,3.69,0,0,0-3.7,3.7V99H119Z" transform="translate(-70.3 -70)"/><path class="cls-4" d="M119,92.5a3.69,3.69,0,0,0-3.7-3.7h-30a3.69,3.69,0,0,0-3.7,3.7v4.7H119Z" transform="translate(-70.3 -70)"/></svg>