<svg id="图层_1" data-name="图层 1" xmlns="http://www.w3.org/2000/svg" viewBox="0 0 60 60.01"><defs><style>.cls-1{fill:#76c2af;}.cls-2{fill:#fff;}</style></defs><title>数据上传</title><path class="cls-1" d="M70.16,100.59a30,30,0,0,0,60,0v0a30,30,0,0,0-60,0Z" transform="translate(-70.16 -70.59)"/><path class="cls-2" d="M115.16,98.71a15,15,0,0,0-29.54-3.63A9.37,9.37,0,0,0,87,113.71h7.5a1.87,1.87,0,0,0,1.87-1.87v-5.16A1.41,1.41,0,0,0,95,105.28H92.13c-1.38,0-1.76-.95-.86-2.1L98.51,94a2,2,0,0,1,3.3,0l7.23,9.21c.91,1.16.52,2.1-.86,2.1h-2.87a1.41,1.41,0,0,0-1.41,1.41v5.16a1.87,1.87,0,0,0,1.87,1.87h9.37a7.5,7.5,0,0,0,0-15Z" transform="translate(-70.16 -70.59)"/></svg>