<?xml version="1.0" encoding="utf-8"?>
<!-- Generator: Adobe Illustrator 21.1.0, SVG Export Plug-In . SVG Version: 6.00 Build 0)  -->
<svg version="1.1" id="图层_1" xmlns="http://www.w3.org/2000/svg" xmlns:xlink="http://www.w3.org/1999/xlink" x="0px" y="0px"
	 viewBox="0 0 60 60" style="enable-background:new 0 0 60 60;" xml:space="preserve">
<style type="text/css">
	.st0{fill:#76C2AF;}
	.st1{fill:#FFFFFF;}
</style>
<title>数据上传02</title>
<path class="st0" d="M0,30c0,16.6,13.4,30,30,30s30-13.4,30-30l0,0C60,13.4,46.6,0,30,0S0,13.4,0,30z"/>
<path class="st1" d="M50.2,28.1c0-11.2-9-20.2-20.2-20.2c-9.3,0-17.4,6.3-19.6,15.3C3.6,24.4-1.1,30.9,0.1,37.8
	c1,6,6.1,10.3,12.2,10.5h10.1c1.4,0,2.5-1.1,2.5-2.5l0,0v-6.9c0-1-0.8-1.9-1.9-1.9l0,0h-3.9c-1.9,0-2.4-1.3-1.1-2.8l9.7-12.4
	c0.9-1.2,2.5-1.5,3.8-0.6c0.2,0.2,0.5,0.4,0.6,0.6L42,34.1c1.2,1.6,0.7,2.8-1.1,2.8H37c-1,0-1.9,0.8-1.9,1.9l0,0v6.9
	c0,1.4,1.1,2.4,2.5,2.5h12.6c5.6-0.2,10-4.9,9.8-10.4C59.8,32.5,55.5,28.3,50.2,28.1L50.2,28.1z"/>
</svg>
