<svg id="图层_1" data-name="图层 1" xmlns="http://www.w3.org/2000/svg" viewBox="0 0 24 24"><defs><style>.cls-1{fill:#619cd1;}.cls-2{fill:#fff;}</style></defs><title>icon5</title><circle class="cls-1" cx="12" cy="12" r="12"/><path class="cls-2" d="M10.48,7.87h2.75l.85-2-.25-.67H9.89l-.26.67.85,2Zm4,.85h0l3.71,3.7a.37.37,0,0,1,0,.53l-1.44,1.43a.36.36,0,0,1-.51,0l0,0-.89-.9L15.73,16a.62.62,0,0,1-.2.57l-3.25,3.24a.62.62,0,0,1-.86,0L8.16,16.57A.62.62,0,0,1,8,16L9.33,8.31,8.4,6.16a.69.69,0,0,1,0-.46l.5-1.29A.61.61,0,0,1,9.47,4h4.78a.63.63,0,0,1,.59.44l.48,1.25a.64.64,0,0,1,0,.46l-.93,2.15.07.41Zm-1.27-.11H10.53L9.24,15.92l2.61,2.61,2.61-2.6L13.18,8.61ZM14.68,10h0l.38,2.22,1.4,1.39.92-.91L14.68,10Z"/></svg>