<svg id="图层_1" data-name="图层 1" xmlns="http://www.w3.org/2000/svg" viewBox="0 0 121.8 121.8"><defs><style>.cls-1{fill:#009bef;}.cls-2{fill:#ccc;}.cls-3{fill:#fff;}</style></defs><title>头像</title><path class="cls-1" d="M-201,165.45A60.52,60.52,0,0,1-261.45,105,60.52,60.52,0,0,1-201,44.55,60.52,60.52,0,0,1-140.55,105,60.52,60.52,0,0,1-201,165.45Z" transform="translate(261.9 -44.1)"/><path class="cls-2" d="M-201,45a60,60,0,0,1,60,60,60,60,0,0,1-60,60,60,60,0,0,1-60-60,60,60,0,0,1,60-60m0-.9A61,61,0,0,0-261.9,105,61,61,0,0,0-201,165.9,61,61,0,0,0-140.1,105,61,61,0,0,0-201,44.1Z" transform="translate(261.9 -44.1)"/><path class="cls-3" d="M-141,105a60.06,60.06,0,0,0-60-60,60.06,60.06,0,0,0-60,60,59.8,59.8,0,0,0,18.9,43.64l0,.05,1.52,1.33c.21.18.43.33.64.51,1.07.92,2.16,1.8,3.29,2.64l1,.68c1.21.86,2.44,1.69,3.71,2.46l.61.35c1.35.79,2.72,1.54,4.13,2.23l.23.12c1.52.73,3.07,1.39,4.66,2l.34.14c1.55.58,3.14,1.1,4.74,1.55l.45.13q2.37.65,4.8,1.11l.55.1c1.61.28,3.23.51,4.88.67l.55,0c1.68.14,3.37.23,5.08.23s3.41-.09,5.08-.23l.54,0c1.65-.15,3.28-.38,4.89-.67l.54-.1q2.45-.46,4.83-1.11l.42-.12q2.43-.69,4.79-1.57l.28-.11c1.61-.61,3.19-1.28,4.72-2l.14-.07c1.46-.71,2.88-1.49,4.27-2.31l.52-.3c1.3-.79,2.56-1.64,3.8-2.52l.87-.62c1.16-.86,2.28-1.77,3.37-2.71.19-.16.4-.3.58-.47l1.51-1.33,0,0A59.78,59.78,0,0,0-141,105Zm-114-.14a54,54,0,0,1,54-53.94,54,54,0,0,1,54,53.94A53.78,53.78,0,0,1-164,144c-3.82-3.69-9.68-5.91-16.62-7.82-3.14-1.38-3.83-1.72-4.63-2.35l-.84-.84c-1.27-1.23-2-1.91-2.21-3.74v-6.39c2.22-2.59,3.63-6,5-10.57,1.87-.71,3.73-3.07,4.32-5.7.63-2.83.33-5.21-.75-6.54,3-11.52,2.58-21.37-1.3-26.51a10.36,10.36,0,0,0-8.6-4.15,4.74,4.74,0,0,1-.82-.94c-1.4-1.91-2.89-3.27-9.36-3.27h-.69c-7.78,0-13.68,2.34-17.53,7-4.94,5.92-6.34,15.37-4.17,28.09-.93,1.33-1.22,3.56-.72,6.2a8.28,8.28,0,0,0,3.78,5.63c1.7,5,3.48,8.39,5.51,10.7a54.21,54.21,0,0,1,0,6.89,6.4,6.4,0,0,1-2,3.36c-1.06,1.06-2.48,1.84-5.41,3-7.24,2-13.2,4.24-17.06,8A53.74,53.74,0,0,1-255,104.86Z" transform="translate(261.9 -44.1)"/></svg>