<svg id="图层_1" data-name="图层 1" xmlns="http://www.w3.org/2000/svg" viewBox="0 0 737.88 303.79"><defs><style>.cls-1{opacity:0.1;}.cls-2{fill:#fff;}</style></defs><title>map</title><g id="Objects" class="cls-1"><path class="cls-2" d="M-40.19-287.58c1.88,0,1.18-1.86,3.81-1.38,3.51.89,5.54,2.9,10.43,2.76,3.23-1.65-4.55-3.06-1.88-4.13,1.42.35,2.4,1,3.79,1.37.75-2.38-1.06-2.91-1.91-4.13,7.84-.3,5.27-7.24,3.85-11a28.58,28.58,0,0,1,8.5-.68c-.24-3-5.1-2.72-7.57-4.14,3,.33,2.12-2.1,5.67-1.39.68-2.09-1.63-2-.95-4.13,3.4.38,2.34-2.44,5.72-2.06,2.38-.57,8.17,1.35,7.6-1.37.88-2.51-4.12-.7-4.75-2.08-2.24-.2-1.78-2.38-4.75-2.06-4.11-.41-8.54,2.48-10.45,1.39.59-3.48,8.37-1.75,9.48-4.82-2-2-6.14-2.41-11.42-2.07-3.05-.79-6.84-1.82-8.53,0-.79-1-3-1-4.73-1.4-3.82,1.84-13.15-.33-17.06,1.4-4.4.07-9.66-.56-11.44,1.39-.09,1.49,2.59,4.46.92,4.79-6.85-.78-10.72.48-17-.68-9.52.95-14,5.48-23.76,6.21-.9,2.49,4.26.56,3.77,2.77-2.74,1.66-7.83,1.62-10.4,3.44-2.35-.9-5.42-.76-6.67,2.05,3-.59,2.94,1.09,4.74,1.36,0-1.82,4.76-1.82,4.76,0,2.31-.4,6.45-3.06,6.64.72-4.06.27-9.76-.68-12.36.68.87,2.58,4.47,3.17,7.62,4.11,2.93.51,1.79-1.89,4.74-1.36a18.65,18.65,0,0,0,11.4,2.07c-.77,3.06.66,4.58,1.91,6.19-.32,1.61-1.51,2.6-1,4.82,3.79,1.35,4.38-3.17,6.66-.67.52,2.45-2.87,2.09-5.71,2.05.8,3.09,7.22,2.13,8.53,4.82-2.16,1.19-4.78,2-6.65,3.45,2.67.9-3,1.42-1.88,3.44,6.77,3.33,1.52,11.2,6.62,15.85h6.66c2.76.08,1.66,2.92,4.74,2.74,1-1.38,1.64-2.94,3.82-3.46-1.15-5.19,4.73-5.25,3.81-10.32,2.42,0,1.33-2.67,3.76-2.75,3.63,1.4,3.63-1.63,7.63,0a36.83,36.83,0,0,1,4.76-2.73c4.58-.83,6.61-3.49,11.37-4.14.39-2.48,8.39-3.08,5.7-5.52C-33.55-284.62-37.49-287.38-40.19-287.58Zm9.51-2.75c-2.54-1.23,0-4.55,2.85-4.12C-28.32-292.75-30.38-292.17-30.68-290.33ZM-24-323.39c-.07,2-2.14,2.56-3.79,3.43-2.91-1.33-7.2-1.64-12.36-1.38C-37-324.17-28.07-323-24-323.39Z" transform="translate(328.83 328.9)"/><path class="cls-2" d="M-157.95-313v4.16c2.89-.48,3.45.71,5.66.69.44-3.14,6.17-6.07,9.52-4.8,1.44,2.88-4.92.09-4.73,2.05,2.86,1-3.29,1.24-2.87,2.75,2.48-.42,3.39.28,2.87,2.05-2.24,0-2.81-1.19-5.72-.66.14,2-3.19,1.34-1.89,4.13,5.67-.54,9.76-1,12.34,2-7.54,1.19-12.41-2.72-17.1-1.36-.75,3.31,5.75,1.35,5.72,4.15,7.17-.74,16.78,3.05,19-2.08,2.47.21,4.07-.26,3.8-2.07.7-1.87-4.44.51-3.8-1.38h6.66c0-3.67,5.8-3.15,4.75-7.57,4.91-.11,5.38-3.43,11.44-2.77,1.16-1.66,3-2.78,6.61-2.75,1.22-1.71-2.11-3.34,0-3.45,4-1.32,9.81.69,11.4-3.43,0-1.13-2.65-.37-2.82-1.38-15.56,1.53-36.76-2-53.24,2.75-1.27,4.16,4.1,3.47,4.75,6.21-6.17.35-4.3-5.16-11.37-4.15-.3.95-1.39,1.33-1,2.78-1.53.05-3.3-.11-2.86,1.37C-161.63-313.6-158.33-314.38-157.95-313ZM-138-300.68c.49.37-.7.92-1,.71-.48-.36.72-.91,1-.71Z" transform="translate(328.83 328.9)"/><path class="cls-2" d="M75.68-314.45c.49-1.93,5-1,3.82-4.12-8.69-1-17-1.23-24.71-1.39a3.23,3.23,0,0,0,.93,2.78C61.72-315.79,66.65-313.62,75.68-314.45Z" transform="translate(328.83 328.9)"/><path class="cls-2" d="M38.67-311c-.12,1.7-1.78,2.13,0,3.44,3.9-.14,4-3.05,8.52-2.77-.23,3.07-4.66,3.07-4.73,6.21a9.18,9.18,0,0,0,6.67,1.39c-.46,2.15,2,2.2,4.73,2a52.15,52.15,0,0,1,2.85-7.56c2.51,1.83,4,4.49,10.46,3.45.84-5.25-5-5.57-7.6-8.25-.29,1.61-2.56-.81-3.85-.72-2.3.12-3.9-.35-4.67-1.36,2.21-1.84-.81-4-4.79-3.45-2.78,1.12,1.51,3.57-1,4.12-2-3.26-11.08-6.49-11.42,0C34.34-312.45,38-312.82,38.67-311Z" transform="translate(328.83 328.9)"/><path class="cls-2" d="M134.56-315.81c-.09-4.35-8.83-2.87-8.52.69C129.28-313,131-316.08,134.56-315.81Z" transform="translate(328.83 328.9)"/><path class="cls-2" d="M187.81-311.69c7.46-.91,15.29,2.4,17.06-2.07-2.23-2.66-10.92-3.78-16.11-2.05C186.62-315.72,188.3-312.88,187.81-311.69Z" transform="translate(328.83 328.9)"/><path class="cls-2" d="M130.83-286.2c-1.39-3.16-5.85-4.05-4.79-8.95,6.71-.42,9.21-3.88,14.23-5.53,6,.45,9-1.22,9.56-4.79H145c-.23.54,0,1.36-1,1.36-7.12.57-12.43,2.48-18,4.14.47,3.54-4.59,3.12-3.81,6.88-1.18,1.46-3.54,2-3.77,4.13a77.8,77.8,0,0,0,9.45,4.15C128.33-285.68,129.17-286.24,130.83-286.2Z" transform="translate(328.83 328.9)"/><path class="cls-2" d="M289.4-298.59c2.28-1.11,3.4-3,5.73-4.13-3.61-.34-4.38-3.17-7.63-2.75-.41,0-.88,1.61-1.89,1.36h-5.67C278.67-299.09,286.71-300.79,289.4-298.59Z" transform="translate(328.83 328.9)"/><path class="cls-2" d="M-13.6-267.61c.11-1.75,3.55-1.08,4.76-2,1-3.5-2.16-4-1.89-6.88-4.12.91-5.59-.44-9.5.67-2.58-.42-2.38-2.88-5.72-2.73,1.17,3.33-3.77,2.29-3.77,4.79,2.66.58,2.46-1,4.7-.67-.49,1.66-3.64,1.47-2.81,4.12,4.75-.9,3.72,2.37,6.66,2.75C-20.38-269-14.57-268.32-13.6-267.61Z" transform="translate(328.83 328.9)"/><path class="cls-2" d="M-143.74-267.61c-3.76-.73-1.28-1.74-3.76-3.45-2.88.51-2.81-1.17-5.72-.67-1.34,1.32-.49,4.2-4.73,3.47.06,2.4,3.12,2.75,6.62,2.72C-151.64-270.88-144.85-263.28-143.74-267.61Z" transform="translate(328.83 328.9)"/><path class="cls-2" d="M23.51-242.8c-1.32-.72-2.94-1.15-3.86-2.06,1.19-4.09-6.3-4.73-2.83-8.28-1.29-.7-2.88-1.13-3.83-2.08,1.38-.58,3-1,2.86-2.74-3.48-.22-5.3.77-7.57,1.36.7,3.76-1.5,5.36-1,9A20,20,0,0,0,12-246.23c.4,2.44-3.2,3.79-4.72,2.74-.74,3.11.66,4.62,1.9,6.22-1.67.64-5.09,0-4.78,2.07a97.9,97.9,0,0,1,15.21-.7C20.43-238.88,19.91-240.83,23.51-242.8Z" transform="translate(328.83 328.9)"/><path class="cls-2" d="M-2.22-240c2.19-.74,5.77-.46,7.62-1.39-1-2.88-.23-3,0-6.2H.67c-.06,3.08-2.16.87-3.8,2.07C-3-243.57-3.65-241.06-2.22-240Z" transform="translate(328.83 328.9)"/><path class="cls-2" d="M323.58-220.08c1.83.09.68,2.27,2.86,2.06,2.11-1.69,1.78-5.13,5.69-5.49-5-.52-8.09-2.4-13.28-2.76.69,3.27-1.07,4.73-1,7.59C320.51-216.88,320.25-220.46,323.58-220.08Z" transform="translate(328.83 328.9)"/><path class="cls-2" d="M301.76-198.72c-.17,2.43,2.24,3,3.8,4.11.66-2.49,3-3.81,5.71-4.82a5.76,5.76,0,0,1,2.82.71c3-2.65,9.3-2.91,12.35-5.52-.16-4.91-2.1-8.6-1.87-13.78h-3.84c1.17,3.23-.49,4.81,1,8.26a1.12,1.12,0,0,0-1,1.18,1.85,1.85,0,0,0,0,.23,28.38,28.38,0,0,0-8.55,4.11c-3.34,1.27-9.37.53-9.49,4.15-.43,1.89,5.17-.54,4.77,1.37Z" transform="translate(328.83 328.9)"/><path class="cls-2" d="M70-204.24c.28,1.93,3.15.56,5.68,2.08.68-2.57-1.46-3.05-4.72-2.77C71.11-204.35,70.57-204.28,70-204.24Z" transform="translate(328.83 328.9)"/><path class="cls-2" d="M281.78-180.8a6.17,6.17,0,0,1,2.85,4.12c4-.16,3.64-3.37,3.84-6.19C286.1-184.41,282.8-182.39,281.78-180.8Z" transform="translate(328.83 328.9)"/><path class="cls-2" d="M-157.95-182.88v2.74h3.8C-154.26-181.88-155.49-182.8-157.95-182.88Z" transform="translate(328.83 328.9)"/><path class="cls-2" d="M-147.49-179.46a3.5,3.5,0,0,0-1-3.41h-2.87C-151.68-180.53-151-178.95-147.49-179.46Z" transform="translate(328.83 328.9)"/><path class="cls-2" d="M-146.57-180.13v3.45c2,.27,2.53-.47,3.8-.71C-142.88-179.13-144.14-180-146.57-180.13Z" transform="translate(328.83 328.9)"/><path class="cls-2" d="M-148.49-169.11c3.41-.4,4.59.8,6.68,1.39.07-2,3.93-1.26,6.61-1.39-1.37-4.56-6.61-3.94-12.33-4.13.7-1.88-1.94-1.4-1.94-2.75-2.06-.78-5.22-.82-5.67-2.76h-14.19c-.42,1.31-2.06,1.73-1.93,3.45,3.87.27,3.85-2.27,8.56-1.38,4,.56,4.45,3.68,8.55,4.13,2.27.43,6.88-.87,7.58.69C-150-171.79-148.94-170.88-148.49-169.11Z" transform="translate(328.83 328.9)"/><path class="cls-2" d="M-139-176.68c-.29-1-2.36-.58-3.79-.71C-144.78-174.88-137.93-174.27-139-176.68Z" transform="translate(328.83 328.9)"/><path class="cls-2" d="M285.61-169.11a16.9,16.9,0,0,0,5.7,4.13c1.19-2.14,4.41-2.75,3.82-6.2C292.51-173.67,285.51-172.54,285.61-169.11Z" transform="translate(328.83 328.9)"/><path class="cls-2" d="M262.79-167c2.68-.39,2.68-2.68,3.82-4.14a7,7,0,0,0-3.82-.68C261-169.18,261.56-171.3,262.79-167Z" transform="translate(328.83 328.9)"/><path class="cls-2" d="M-158.93-170.5v2.78c3.2-.74,3.27.22,6.64-.69C-151.64-171.17-155.87-170.38-158.93-170.5Z" transform="translate(328.83 328.9)"/><path class="cls-2" d="M-133.29-167.72c3.43.17,6.59.15,5.71-2.78h-5.71Z" transform="translate(328.83 328.9)"/><path class="cls-2" d="M-33.55-167.72c0,1.35-2.58.87-1.87,2.74h3.78C-31.36-166.56-31.9-167.57-33.55-167.72Z" transform="translate(328.83 328.9)"/><path class="cls-2" d="M293.22-156.71c2,1.48,2.69-.35,5.68,0-.31,1.61-2,3,1,3.44,1.34-2,4-3.07,8.53-2.75.89-3.17-3-2.85-4.74-4.13.23-2.26-1.12-3.33-3.79-3.45-1.34.89-.94,3-1,4.82C295.72-159.95,294.79-158.36,293.22-156.71Z" transform="translate(328.83 328.9)"/><path class="cls-2" d="M199.16-154.65c1.36,4.08-3.61,4.92,0,6.88,3,.34,2.53-1.84,4.77-2.06C203.14-152,201.17-153.34,199.16-154.65Z" transform="translate(328.83 328.9)"/><path class="cls-2" d="M261.86-136c.93,2.77,5.06,3.21,4.75,6.88,6.16-1,5.22,3.09,11.38,2.06-.27-1.59,2.73-.76,2.87-2.06-.73-.16-1.88,0-1.89-.71,3.12-.94,1.56-5.25,4.78-6.17-2.19-2.24.78-4.58-1-6.22,1.66-.61,3.28-1.26,2.85-3.42-2.3-1.31-4.15-3-8.55-2.77C276.17-141.26,263.51-142.65,261.86-136Z" transform="translate(328.83 328.9)"/><path class="cls-2" d="M243.79-140.88c-1.43-1.6-4.43-2.71-3.75-4.8-2.6.48-1.93-1.38-3.82-1.38.12,3-2.32-.08-4.77.68,0,8,13.35,6.4,11.44,15.83,4.67.38,6,4.91,10.4,3.45,2.19-2.64-2-5.65-1.84-8.94C248.51-137.45,245.13-139.42,243.79-140.88Z" transform="translate(328.83 328.9)"/><path class="cls-2" d="M297-135.36c-.2-3.06-6-2.09-7.64-4.13-4.87,2.83-8.25,10.49-.93,13.07-.2-2,.22-3.5,1.89-4.13,2.09,1.33,2.22,3.51,5.7,2.09-.49-2.88-3.67-3.81-3.79-6.9A4.59,4.59,0,0,0,297-135.36Z" transform="translate(328.83 328.9)"/><path class="cls-2" d="M317.89-138.12c-3.09-1.4-10.68-1.14-10.43,2.08C310.71-134.57,317.65-135.26,317.89-138.12Z" transform="translate(328.83 328.9)"/><path class="cls-2" d="M328.36-135.36h-6.65c-.85,1-1.42,2.19-3.82,2.07-3,.52-1.78-1.92-4.7-1.39.27,1.8-3.75.56-2.87,2.74.12,1.56,2.37-.86,4.7,0,4.24,2.48,9.79,4,13.34,6.9v4.16c5.08-2.23,6.6,1.41,10.44,2.06,3.34-.1,2.29-3.4,6.65-2.75,2.23.94,4.75,5.24,8.54,2.75a3.81,3.81,0,0,1-2.85-4.11c-2.49-1.65-6-2.54-7.58-4.84v-2.11C336.23-130.06,334.24-134.11,328.36-135.36Z" transform="translate(328.83 328.9)"/><path class="cls-2" d="M278-119.52c.53-2.44-3.31-1.7-2.82-4.14-7.75.15-13.27-1.43-19-2.76-.83,1.23-2.65,1.77-1.86,4.14C263.34-122.21,267.65-118.66,278-119.52Z" transform="translate(328.83 328.9)"/><path class="cls-2" d="M348.27-92.66c.38-3.25-1.66-4.74-.94-8.27-1.86-.46-2.16-2.08-3.77-2.75-.34-5.27-6.81-6.1-5.71-12.4-1.77.15-2.08-.77-3.79-.7-2.44,2.84,1,10-2.88,11.72-3.73.9-1.92-2.27-5.7-1.39-.15-1.92-4.48-.83-3.77-3.43-.49-2.18,4.68-.26,3.77-2.73-3.3-2.68-13-.7-18-2.08-1.65.41,0,3.25-1.9,3.43a46.85,46.85,0,0,0-9.5,2.08c-1.19,2.08-.34,5.73-3.79,6.2-2.26-1.63-4.69.1-7.64,0-1.84.47.23,3.85-1.87,4.11-2-.38-1.84-2.06-3.79-.67-2.36,1.72-1.25,6-4.74,6.88-2.14,1-6.36.46-7.62,2.07,1,3.06,3.33,6.88.95,10.33,1.86.49,2.51,1.85,2.85,3.44.52,3.14-1.69,4.29-1,7.57,2.84-.18,3,1.56,5.75,1.39,4-1.25,6.29-3.68,13.3-2.76,3.35-3.07,10-3.76,18-3.44a12.87,12.87,0,0,1,5.66,6.2c3.72-1.29,2.57,1.59,6.67,0,0,1.81.34,3.92-1,4.82,6.07,2.56,9.67,2.7,19,2.77,2.39-1.25,4.16-3,7.59-3.49-.46-3.52,4.53-3.1,3.77-6.86,3.31-.16,2.48-3.29,5.72-3.44-1.09-2.44,1.63-3.91,1.89-6.2.52-4.21-1.84-8.51-2.84-12.4C350.66-93.57,349.11-90.63,348.27-92.66Z" transform="translate(328.83 328.9)"/><path class="cls-2" d="M127-114.69a17.14,17.14,0,0,0-3.81,6.89c-4.12.68-6.22,2.78-8.52,4.82-.77,2.38,1.37,2.66.93,4.81-.85,1.45-1.51,3.06-2.88,4.14,2.08,3.11-.65,5.86,2.88,8.27,3.08.13,4-1.23,7.59-.7,2.06-3.08,1.26-4.45,3.81-7.57v-3.45c.23-.77,1-1.07,1.89-1.39-1.73-3,1.75-5.87,2-11C127.26-109.88,130.91-115,127-114.69Z" transform="translate(328.83 328.9)"/><path class="cls-2" d="M400.51-67.88c.19-2,.13-3.77-2.83-3.44v5.49c-.77,2-4.52,1.8-3.81,4.85,6.38-.68,2.17,2,1.89,4.12,6-.21,6.22-4.71,8.57-7.58,1.42-1,4-1.24,4.72-2.77C406.78-69.32,405-67.6,400.51-67.88Z" transform="translate(328.83 328.9)"/><path class="cls-2" d="M390.07-59.59c-.81,1.45-2.85,2-2.81,4.12a7.16,7.16,0,0,0-3.84.69c-1.6,1.37-2.2,3.45-4.72,4.12-3.92,1.08-5.08,4.12-6.69,6.9,3.11-1.12,5.16-.34,8.55,0,.9-1.64,3.83-1.83,2.86-4.83h3.84c.26-3.93,7.45-2.82,7.55-6.88C394.51-57.76,392-58.44,390.07-59.59Z" transform="translate(328.83 328.9)"/><path class="cls-2" d="M325.51-57.55c-1.06,1.06,3.18,4.17,3.83,6.22,4.62-.32,7.6-1.83,6.65-6.22C331.81-57,327.16-58.39,325.51-57.55Z" transform="translate(328.83 328.9)"/><path class="cls-2" d="M-104.79-36.2H-101C-100.33-38.88-104.94-38.44-104.79-36.2Z" transform="translate(328.83 328.9)"/><path class="cls-2" d="M131.72-158.78c-4.06-.41-3.84,2.25-7.56,2.07h-8.57c-.45-4.71-5.18-6.35-8.57-8.95.84-4.53-5.64-3.71-3.79-9-1.61-1.56-4.57-2.19-5.69-4.12.85-1.94-1.07-4.92-.22-5.43-.24-.49-.53-1-.86-1.63-.27.18-.66.29-.79.19-.35-.26.11-.58.5-.7-1.72-3-4.16-6.86-5.1-8.33h-.2c-6.91-1.83-15.52-2.48-24.7-2.73-2.74.52-2.27,3.39-4.74,4.14-4.36-3.27-13-3.45-17.06-6.89.73-2.39-1.08-2.93-1.91-4.15,2.22-.19,2.17-1.84.92-2.75a43.91,43.91,0,0,0-14.25,2.18c-7.7-.33-14.38.1-18.06,2.77-.81-1.45-2.75-2.12-5.67-2.08-.79,2.43-4.2,2.92-6.63,4.15-2.59,3.23-1.62,7.45-3.78,10.32-1.43,1.81-6.52,3.68-8.59,5.52-.15,4-2.34,6.57-4.76,9v17.9c3.29,2.68,6.16,5.67,7.63,9.63,4.37,1.88,7.31,4.82,13.28,5.51a66.53,66.53,0,0,1,13.3-.68c2-1.12,1.84-3.71,5.74-3.44,1.69.11.54,2.32,1.92,2.74,4.37-.44,6,1.11,9.46,1.38,1.62-.6,2.41-1.92,5.7-1.38.95,5.32-2,7.76-1.92,12.42,2.71,3.53,7.34,6.2,5.71,11,2.51,2.32,2.68,6.32,3.8,9.64-2.34,3.13-1.8,8.3-3.8,11.7a21.67,21.67,0,0,1,8.59,11v6.21c4.21,3.57,4.1,10.29,8.52,13.77,9.13-.48,13.71-4.25,21.85-5.5,1.44-3.79,4.33-6.5,8.52-8.27-.48-2.68,1.71-3.37.93-6.21,1.7-.62,2.44-1.92,5.72-1.39.1-7.94,4-13.14,11.42-15.83a45.09,45.09,0,0,0,0-19.28,30.08,30.08,0,0,0,4.7-8.95c2.28-1.12,4.19-2.48,6.67-3.46,4.52-4.75,8.62-9.83,13.32-14.44C133.42-153.77,134.68-157.29,131.72-158.78Z" transform="translate(328.83 328.9)"/><path class="cls-2" d="M395.78-274.48c-2.53-.84-6.21-4.53-8.52-1.39a3.66,3.66,0,0,0-1-3.44c-5.17-1.35-7.92-4.41-16.15-3.45-1.1-1.28-3.67-1.46-4.75-2.75-6.22.59-7.55-2.36-14.27-1.39-1.32,2,2.61,3.53,0,4.14-2.75-.3-2.25-3-4.73-3.44-2.8,2.13-7.93.21-13.38,1.39-3.39-1.62-3.14-5.95-10.37-4.82-1.38.15-.33,2.05-1.93,2.05-4-1.25-7.82-2.6-11.38-4.1a2.55,2.55,0,0,1-1.89,1.35c1.19-2.7-2.27-2.05-4.77-2.05,2.34-1.64-1-1.56-1.86-2.77-4.58,1.21-4.25-.4-8.56-.68-.33.92-2.41.57-3.8.68-1,1.28,2.84,2.31,0,2.77-8.17-.94-18.53,1.22-25.68,0-2.4-.44-3.32-2.55-5.66-2.07-4.41.73-7.33-.72-10.48-1.38-1.11-.27-2.62.16-3.76,0-2.39-.33-4.19-2.19-9.5-1.41.36-1.76,2.8-2.07,2.83-4.11-1.34-2-4.39-2.78-5.69-4.84-2.87.93-7.27.73-11.41.72-2.37-.58-2-3.13-5.7-2.77-2.22.69-3,2.37-2.84,4.82-4.72-1.11-3,2.42-6.65,2.07-1.83-.28-.77-2.68-3.8-2.07-2.46,1.9-5.9,3.09-11.37,2.74-1.69.89-2.52,2.34-5.71,2.09-1.33.88-.43,3.36-2.89,3.44-2,.43-6.57-1.12-5.64,1.37,0,2.53,5.53,1,4.72,4.15-3.49-.75-4.43-3.22-9.52-2.75,0,1.8.53,4-1.9,4.12-1.1-.82-1.1-2.45-1-4.12-3.7-.61-1.53,3-5.68,2.05-1.49-1.23-1.3-3.67-5.7-2.76-2.68,2.89-6.31,5.09-9.53,7.58-6.15.33-5.69-1.29-12.32-1.39-1.54,3.4,4.91,1,3.79,4.14-4-.66-8.22.35-14.25,0-4.28,1.26-6.62,3.93-11.39,4.82v-4.14c-2.36.12-4.58.13-5.69-.68.23,3.86,0,7.36-5.7,6.89.31,2.54-3.48,2.06-5.7,2.76-2.36.92,1.68,2.06-1,2.75-5.56.81-5.88-5-5.68-6.18,4.41,0,9.27-.31,12.35.67,2.53-4.31-5.34-6.54-11.42-6.89-1.48-1.67-4-2.56-7.56-2.75a14.44,14.44,0,0,0-4.77-4.12H68c-2.57,1.3-5,2.79-7.54,4.12-.44-1-1.25.28-2.9,0-3.39,2.6-7.64,4.55-11.37,6.91a14.72,14.72,0,0,1-5.7,7.54c-.18-.79-1.75-.56-2.85-.67V-269c-6,.27-6.66,4.37-8.58,7.6,1.92,1.62,2.2,4.4,1.92,7.56.92,1.86,6,.75,7.62,2.08-2.08,2-3.81,2.79-3.81,4.83,2-.33,1.79,1,1.89,2.07-3.38,0-5.51,1.06-8.53,1.34-.87,1.25-2.69,1.77-1.93,4.16-5.39-1.17-2.12,4-6.64,3.43.15.82-.2,1.23-1,1.38-4.16-.3-5,1.87-7.59,2.78-2.29.37-4.84.58-4.69,2.74,1.23.94,4.11.68,6.61.69-.45,3.11,4.4,2.33,3.83,5.52-1,.91-1,2.56-2.88,2.74-4.42-1.64-8.35.62-14.22,0-1,2.28,2.11,7.5-1.94,7.59.7,2,2.89,3,1.94,6.19,4.41-.68,5.74.9,8.56,1.37,3.54-1.32,4-1.32,7.57,0,2.16-2.78,5.43-4.8,4.73-9.64,4.18-.88,3.47-5.29,8.55-5.51,4,1.73,5.66-.48,9.54-.68-2.69,2.68-1.33,7,0,10.33,6-.39,2.27-3.9,2.83-7.59-1,0-1.2-1.21,0-1.37V-218c2,.21,1.88,1.85,2.87,2.77,4.61.08,7.47,1.41,8.51,4.14-.15,1.49-2.37,1.46-4.76,1.35-.12,2.42,3.36,2.18,4.76,3.46-.45-3.1,2.56-3.65,4.75-4.81.53-1.56-1.79-1-1.91-2.09,1.76-2.15,3.23,2.33,4.81,0-2.61-3.64-14.42-4.25-11.4-9.62,2.82,3.15,8.19,4.63,11.4,7.57.53.53,1.34,2.15,1.85,2.76.75.86,2.31,1.65,1.92,2.73v4.13c1.23.94,4.14.68,6.66.7,1.59-2.37-1.71-5.76.92-8.27h2.84c-1,2.71-.15,2.57-.91,5.49,2.12-.24,1.27,2,2.84,2.78,3.45,1.76,9.79,1.22,12.33,0,2.85,1-2.47,3.58,1.89,3.46,3.92.5.21-4.46,4.8-3.46v4.12c-2.37,1-1.38,4.47-3.37,5.74,1.66,3,5.6,10.28,6.16,11.41h0c2,1.52,3.76,4.38,2.86,5.6,4,2.88,6.63,6.67,10.47,9.65,2.26,2.86,1.9,7.17,6.67,9.63,6.62-1.6,11.26-4.66,19-5.53,1.33-.4.17-2.63,1.88-2.73,4.12-.48,5.85-2.67,9.52-3.46-.68-3,2.78-3.06,2.86-5.49-1.64-2.48-6.53-2.63-5.73-6.88-3.59-.35-6,.19-7.58,1.34-.78-2.6-4.28-3.3-3.82-6.87-3.07.18-2.74-2.12-4.71-2.76,1.41-.36,2.38-1,3.79-1.38,5.25,2.38,3.67,9.72,13.31,9,.38,1.33,2.69,1.27,1.88,3.45,4.59.34,5.27-2.13,9.52-2.06,1,.44,1,1.56,2.84,1.39,6.61-.72,8.25,2.26,12.29,3.41-1.57-.24-1.77.55-1.84,1.4,1,1.31,4.35.93,5.72,2.06-.51,2.17,1.69,2.43.88,4.82,2.89,2.3,4.12,5.76,5.72,9,2,1.32,4,2.64,4.8,4.81v4.15c1.18,1,4.1.66,6.61.68,1.26-4.4,4.66-7.19,3.79-13.09h3.81v-2.77c3.59,1,1.84-1.86,4.74-1.35-.27-3.17,3.47-3.48,4.76-5.52a21.71,21.71,0,0,1,8.54-2.75c2.16,1.89,2.17,5.33,5.73,6.22.33,1.62-1.76,1.46-1,3.4,1.07,2.25,7.56.52,9.56,2.06-1.28,1.47.48,2-1,4.16,2.48.72,4.23,2,4.75,4.13-.35,1.3-2.71,1.24-1.88,3.45C237.4-150.41,240-150,239-147c4.57,2.87,8.89,5.95,14.24,8.26.26-4.54-4.47-5.45-4.72-9.65-2.65-1.32-5.17-2.69-6.67-4.82.44-2.23-1.25-5.94,1.89-6.2,2.09,2,3.58,4.33,7.66,4.82a3.06,3.06,0,0,1,.89,2.75c9.23-.88,11.48-6.84,10.45-15.14-1.22-.69-3.49-.68-4.74-1.37,1.21-3-4.55-2.83-1.9-4.83s2.48,2.26,6.64,1.38c.68-2.95,5.51-2.92,10.46-2.77,3-3.32,7-5.87,8.53-10.33,1.55.2,1.63-.64,2.85-.66,1.6-2.8-.21-8,2.87-9.64-2-.63-2.87-2-2.87-4.17-1.6-.86-3.69-1.41-3.77-3.43-.42-1.65,1.75-1.5.92-3.44,2,.22,3-.13,2.85-1.41,2.73-.87-4.28-4.11,1.93-4.11,1.08,2.2,4.36,2.78,5.71,4.83-.93,3.64,1.78,4.68,4.77,5.52,5.69-3-.2-10.58,2.83-15.84,2-1.31,4.85-2,7.59-2.77,2.2-3.22,4.14-6.62,7.56-8.95,1.31-5.55-2.16-11.27,0-15.15-1.3,3.93,2.19,4.39,2.87,6.88.18,4.27.47,8.4,4.77,9.64,1.76-1.22-.78-1.75,0-4.11,2.59-.09,1.91,1.14,3.78,0,.17-2.19-2.52-2.34-1.87-4.85-3.44-.47-4.33-2.81-5.72-4.81-.35-2.48.34-5.76-2.82-6.2-2,.17-.26,3.06-2.84,2.77-1.61-5.07-8.07,3.16-10.5-2.07.66-1.61,2.41-2.37,3.83-3.44,1.09-2.2.71-5.43,3.8-6.23,2.18,1.7,1.73-1,4.7-.68,4.48.46,8.62,1.81,14.29,1.39-.33,1.18.73,1.31,1.87,1.37,1.25-.95,4.15-.66,6.67-.7.48-2.17-1.69-2.41-.94-4.8,1.92-.2,1.84-1.86,3.79-2.07,1.95.21,1.87,1.87,3.8,2.07-.44-1.52,2.83-3.8,3.77-2.07-3,4.42-7.5,7.85-8.53,13.76.62,1.87,2.71,2.64,3.82,4.15.41,2.63,1.11,5.16,3.77,6.19,2.37-1.74,3.77-4.16,6.66-5.53-.87-3.4,3-2.9,1-5.48.25-1.4,2.51-1.37,2.82-2.76-1.4-.82-4.26-.62-3.81-2.76.93-6,7.16-4.74,14.26-4.14,1.37-1.06,1.24-3.2,2.85-4.12,5.54-.3,9.71-2.19,13.26-2.08,0-2.94-4.7-2.51-4.7-5.5,2.23-.22,1.77-2.38,4.7-2,5,.07,4.3,4.24,10.45,3.41C396.06-270.22,394-272.45,395.78-274.48ZM60.51-262.78A14.61,14.61,0,0,0,68.05-260v6.88c-2.13-.28.54-4.05-3.77-2.75-2.1,2.38-.77,7.23-3.77,9-3.17.22-5.51-.33-7.65,0-2.64.39-3.2,2-5.69,2.07.3-.85-2.72-2.38-2.82-.7-2.22-.2-2.22-1.88,0-2.07a8.83,8.83,0,0,1-3.81-6.89c4.74.29,2.92,9.7,11.39,6.89,2.14-2.8,3.6-6.1,5.68-9a13.22,13.22,0,0,0-1.91-4.14c.57-6.47,7.34-8.46,10.45-13.07,1.14-.09,1.73.15,1.9.7C67.31-268.38,59.66-268.69,60.51-262.78ZM70.94-258c-.06-2.08,3.35-1.7,5.69-2.06.09,2.14-2.84,2-5.67,2.06Zm7.6-26.85c-.5-.37.68-.89.94-.7.5.37-.66.89-.92.7Zm18,13.75c-.5-.35.67-.87.95-.67.52.35-.64.85-.9.67Zm70.28-11c-1.81-.28-4.08-.22-3.79-2.05-2.85-.14.89-2.87,0,0,.72,1.08,4.68-.18,3.84,2Zm58.85-12.37c-.46-.35.73-.91,1-.7.57.35-.65.86-.95.68Zm2.89-.7c-.48-.36.69-.87.94-.68.54.3-.61.85-.89.66Zm2.84-1.39c-.49-.35.7-.89,1-.7.5.34-.68.87-1,.68Zm42.78,86.78c1.33-1.3,2.1-3,5.71-2.73,0,1.07-.46,2.62.92,2.73-1.38,2.06-4.11-.58-6.58,0Z" transform="translate(328.83 328.9)"/><path class="cls-2" d="M106.1-239s-6.39-.47-9.59-1.87a8.49,8.49,0,0,0-8.9-2.33c.45-3.4-1.83-6.66-6.85-6.66s-3.88-7.9-.46-9.91,2.74-3,0-5-3.88-9.61-3.88-9.61l5.1-11.17h-.11a14.44,14.44,0,0,0-4.77-4.12H68.06c-2.57,1.3-5,2.79-7.54,4.12-.44-1-1.25.28-2.9,0C54.23-283,50-281,46.25-278.65a14.72,14.72,0,0,1-5.7,7.54c-.18-.79-1.75-.56-2.85-.67V-269c-6,.27-6.66,4.37-8.58,7.6,1.92,1.62,2.2,4.4,1.92,7.56.92,1.86,6,.75,7.62,2.08-2.08,2-3.81,2.79-3.81,4.83,2-.33,1.79,1,1.89,2.07-3.38,0-5.51,1.06-8.53,1.34-.87,1.25-2.69,1.77-1.93,4.16-5.39-1.17-2.12,4-6.64,3.43.15.82-.2,1.23-1,1.38-4.16-.3-5,1.87-7.59,2.78-2.29.37-4.84.58-4.69,2.74,1.23.94,4.11.68,6.61.69-.45,3.11,4.4,2.33,3.83,5.52-1,.91-1,2.56-2.88,2.74-4.42-1.64-8.35.62-14.22,0-1,2.28,2.11,7.5-1.94,7.59.7,2,2.89,3,1.94,6.19,4.41-.68,5.74.9,8.56,1.37,3.54-1.32,4-1.32,7.57,0,2.16-2.78,5.43-4.8,4.73-9.64,4.18-.88,3.47-5.29,8.55-5.51,4,1.73,5.66-.48,9.54-.68-2.69,2.68-1.33,7,0,10.33,6-.39,2.27-3.9,2.83-7.59-1,0-1.2-1.21,0-1.37v1.37c2,.21,1.88,1.85,2.87,2.77,4.61.08,7.47,1.41,8.51,4.14-.15,1.49-2.37,1.46-4.76,1.35-.12,2.42,3.36,2.18,4.76,3.46-.45-3.1,2.56-3.65,4.75-4.81.53-1.56-1.79-1-1.91-2.09,1.76-2.15,3.23,2.33,4.81,0-2.61-3.64-14.42-4.25-11.4-9.62,2.82,3.15,8.19,4.63,11.4,7.57.53.53,1.34,2.15,1.85,2.76.75.86,2.31,1.65,1.92,2.73v4.13c1.23.94,4.14.68,6.66.7,1.59-2.37-1.71-5.76.92-8.27H74.7c-1,2.71-.15,2.57-.91,5.49,2.12-.24,1.27,2,2.84,2.78a9.2,9.2,0,0,0,2.34.78l1.32-17.28a163.83,163.83,0,0,0,22.13-9.84C106.32-235.76,106.1-239,106.1-239Zm-26.59-46.5c.48.37-.68.89-.94.7C78.06-285.18,79.24-285.7,79.51-285.51Zm-19,22.73A14.61,14.61,0,0,0,68.05-260v6.88c-2.13-.28.54-4.05-3.77-2.75-2.1,2.38-.77,7.23-3.77,9-3.17.22-5.51-.33-7.65,0-2.64.39-3.2,2-5.69,2.07.3-.85-2.72-2.38-2.82-.7-2.22-.2-2.22-1.88,0-2.07a8.83,8.83,0,0,1-3.81-6.89c4.74.29,2.92,9.7,11.39,6.89,2.14-2.8,3.6-6.1,5.68-9a13.22,13.22,0,0,0-1.91-4.14c.57-6.47,7.34-8.46,10.45-13.07,1.14-.09,1.73.15,1.9.7C67.31-268.38,59.66-268.69,60.51-262.78ZM70.94-258c-.06-2.08,3.35-1.7,5.69-2.06.09,2.14-2.84,2-5.67,2.06Z" transform="translate(328.83 328.9)"/><path class="cls-2" d="M-61.1-122.28c.05-2.56-.95-4.36-1.88-6.18-1.67-1.3-2.79.29-4.74.67-1.5-2.35-5.18-3.14-8.52-4.15H-82.9c-1.7-2-8.06-.59-8.56-3.42-2.53,0-5.62.38-5.67-1.39,2.73-3.21-2.82-12-11.43-8.93-3-1.29-5.19-3.13-5.68-6.22-5-1-8.51-3-13.34-4.12-1.23.25-1.48,1.2-2.83,1.37-1.29-2.48-5.91-2.6-6.68-5.5-3-.62-2,1.77-3.78,2.07-2.21-.48-2.52-2.3-4.75-2.76-.86,1.2-1.73,2.38-4.75,2.06-1.45,2.85-5.21,4-7.54,6.18a28.6,28.6,0,0,1-3.06,3.87c.63,1.28,1.47,2.41,2,3.7,0,1.39-2.57.91-1.88,2.77.44,3.55-3,4.24-3.8,6.9-1.84,4.8,3.83,7.43,0,9.64,1.66,1.31,4.69,1.63,6.66,2.77-.78,1-3,1-4.75,1.36-.69,5.54,3.49,7.57,8.55,9,.38,1.64-1.76,1.48-1,3.43,3.55,2,4.82,5.67,10.47,6.2C-143-99.88-140-97.7-140-93.32c-1,.9-.89,2.53-1.86,3.43A2.9,2.9,0,0,1-140-87.13c-2.55,3.1,1.14,6.72,0,11-5.13,2.22-2.77,9.93-4.72,14.46,1.4,1.91,3.88-1.19,4.72.71.86,3.37-3.25,3.15-4.72,4.8-1.21,2.24,3,.54,1.87,2.78-1.81,1.66,1,3.33-1,5.48.93,4.69,4.13,7.09,2,11,2.8,1.61,2.51,5.49,5.68,6.89-.14,1.22,1.12,1.44.93,2.74a20.52,20.52,0,0,1,5.69,2.06c3.56-.42,9.8,1.14,10.43-1.38a9.26,9.26,0,0,1-5.68-2.76c.71-2.32-3.84-.87-2.85-3.43-.32-3,2.75-3.54,2.85-6.21,2.46-.08,3.69-1,3.82-2.74.49-2.44-3.34-1.68-2.85-4.14,2.55-2.12,6.45-8.93,0-9.64,6.36,1.17,6.14-2.4,7.58-4.8,5.12.24,6.86-2,10.47-2.77.63-3.21-1.52-4.43-1.92-6.87h7.61c0-.69,1.17-.56,1.91-.71.53-1.68.81-3.53,3.8-3.44C-94.72-78-90.8-78.83-88.7-81v-4.8c1.81-1.23,3-2.92,4.74-4.15,4.53-1,4.53-1,8.55-2.06.43-4.42,5-8.25,1.9-13.09a3,3,0,0,0,1.9-3.45c1.54.22,1.66-.64,2.87-.67.35-2.28,2.8-3,3.81-4.81,2.52-1.8-.14-3.33,2.81-4.14C-62.71-120.25-61.1-120.66-61.1-122.28Z" transform="translate(328.83 328.9)"/><path class="cls-2" d="M-164.61-148.45c1-.91.91-2.56,2.84-2.74a6.54,6.54,0,0,0,.18.88,29.61,29.61,0,0,1,3.53-3.64c-.38-1.32-1.66-2-3.71-2.07-2.45.72-3.52,2.47-6.69,2.75-2.22-3.36,1-6.55,0-11-1.71-2.38-8-1.48-11.36-2.73,1-3,3.7-4.66,2.86-9a36.76,36.76,0,0,1-9.49,0c-1.74,1.48-.91,4.83-3.81,5.49-12.71.5-4.76-11.81-7.6-17.21,3.37-.58,5.37-2.06,8.56-2.74,5.2-.33,6.42,2.21,11.37,2.05-.07-1-.19-1.93,1-2.05,4.57.16,10.68-.88,11.39,2.05-.41,4,2.1,5.86,6.64,6.21-1.14-3.55-.63-4.63,0-6.9-1.07-1-2.7-1.68-2.84-3.45,1.59-4.56,5.79-7.28,12.33-8.27.87-2,.87-2.1,0-4.12a8.34,8.34,0,0,0,4.8-.7c-2.37-3.77,3.09-2.94,1.87-7.57,3.16-.93,6.17-1.92,9.48-2.75.5-2.16-2.88-1.56-1.88-4.13,3.47-2.08,8.74-2.85,13.34-4.13.66,1.87-1.93,1.39-1.93,2.75,3.8-1.15,7.83-2.12,10.47-4.12-2.35-1.08-7.08-.43-6.67-3.45.53-1.91,3.65-1.92,5.72-2.74.38-1.68-1.76-1.5-1-3.46,4.62,2.27,10-3.33,13.3-2.07-2.19,3.69-6.72,5.68-8.54,9.64,3.52.49,4.08-1.18,7.57-.68.09,1.07-.42,2.63,1,2.76.94-1.71,3.64.94,6.65,0-.46-1.59-1.86-3.52,0-4.83-3.46-.24-4.35-2.36-5.71-4.14a41,41,0,0,0,0-9c-1.82-1.27-2.36,0-4.73,0,.1-3.25-4.39-3.24-4.75-6.18a3.1,3.1,0,0,0,.94-2.75c-3.66-1.51-2.33-6.61-7.62-6.9-.48,1,1.14,3.57-.94,3.46-2-.41-6.24.87-6.65-.71v-6.87c-5.08,1.66-4.15-1.61-8.56-2.07-2.5,1.9-2-.8-4.72-.67-2.3-.28-2,1.24-4.76.67,1.42,6.87-2.58,10.73-1,15.84-1.61.2-4.72-1.95-5.7,0,1,2,3.17.44,3.82,1.37-3.32,1.51-3.39,5.34-4.75,8.29-2.17-2.11-2.6-5.49-3.78-8.29-1.94-1.37-1.88.32-3.8.7-.82-2-1.41-.75-3.82-.7a26.65,26.65,0,0,0-10.41-4.81c1.5-3.42-3.34-2.19-2.93-4.82,2.07.33,1.85-1,2-2.06,3.14-1.18,4.47-3.63,7.59-4.84,2.1-2.41,3.55-5.24,8.58-5.5.07-1.23-1.17-1.45-1-2.75a90,90,0,0,0,14.19-2.73,12.84,12.84,0,0,1,1-6.89c-1.12-1-3.59-1.07-4.73-2.05,3.76-.23,7,0,8.52,1.36,1.78-2.09,4.56.8,7.61,0-1.33,3.51,4.33,1.91,3.79,4.85-.93,5-11.26,3.28-12.34,8.24,1.57,1.63,5.53,1.51,9.51,1.36,5.9,1.94,8.23,6.46,16.17,6.91-2.13-3.57,1.58-3.47.95-7.57-.42-1.8-2.88-2.08-2.89-4.15,3.62.15,4.62,2.19,7.62,2.75-.27-1.79-.34-3.42,2.85-2.75-.67-2.11,1-2.51.92-4.13-2.56.48-1.8-1.42-2.84-2.06a59.86,59.86,0,0,1-8.55-2.08c.28-1.4,2.6-1.32,2.89-2.73-1.23-1.66-4.18-2.05-3.85-4.82h-8.52c.45-2.18-2.55-1.82-2.85-3.46-4-.4-6.28.5-9.5.71.56-4.27-7.51-2.92-8.56-.71.35-2.57-.76-4-3.8-4.15-4.9,2.2-10.6,9.24-4.74,13.11,1.4.38,4.88-.79,4.74.68-1,2-3,3.32-4.74,4.85-2.43-1.71,2-1.5,1-4.16-3.24-1.54-6.33-3.23-7.62-6.2-3.62.33-3-2.38-7.56-1.37.33,1.65-1.79,1.49-1,3.43,3.26.94,2.06,6.41,0,7.59a3,3,0,0,1-1.85-3.45c-4.78-.49-4.78,2.55-8.61,2.76-3.53-1.1-7.4-1.95-9.47-4.13,4.24-.53,5.72.92,9.47.68,2.1-1.43-.43-2,0-4.13,5.27-.78,7.36-3.86,12.33-4.8-1.72-2.17-1.37-3.79-1.87-5.51h-14.23c-2.1,1.93-6.83,1.93-7.63,4.8-.49-1-1.4-1.71-1.89-2.74-2.51,0-5.92.63-4.73-2.06,7,1,15.42-2.51,21.83-4.15,0,3.17,8.13,2.37,9.5.69-.66-1.57-.85-3.5-1.87-4.84-5.6.54-8.35,3.19-14.28,3.47v-4.15c-5.19-1.27-6.12,3.24-2.84,4.13-5.44.48-8.52-.76-13.27-.7,1.41,3.57-4.39,1.91-4.75,4.14,2.36.88,2.92-.35,3.77.69-.61.92-2,1.28-3.77,1.35-1.53-3.93-9.07-3.54-16.17-3.44-.5,3.34-2.93,5.24-5.72,6.9-.17,2.17,2.49,2.33,1.93,4.82,4.69.2,7-1.31,10.4-2.06-1.94,3.73,5.22.82,5.73,2.76.68,1.87-4.47-.5-3.82,1.36,0,3.73,10.39-.17,8.58,4.82,3.55-1.52,4.65-1.08,8.52,0h1c-.3-.83,2.74-2.36,2.86-.68-.17.82-1.51.77-2.86.68.26,1.74,4.07,3.92,0,4.85-1.12-.14-.77-1.28-1-2.08-8.43-.54-12.7-4.09-22.78-3.45-2.91-.64-3-3.34-6.63-3.44-.45,2-3,2.44-5.72,2.75a3.63,3.63,0,0,0-.92-3.45c-3.67.16-3.67,2.92-7.6,2.77-3.61.53-4.54-.85-7.61-.68-1.06.16-.63,1.36-1.9,1.36-.93,0-.77-.84-.93-1.36-2.27.22-3.6,1.08-6.69.68-7.57-3.44-22.2-1.79-30.35-4.83-7.11,2.25-16.32,2.89-20.91,3.45-2.16,2.67,1.72,2.72,2.82,4.83,3.63-.33,5.94.28,6.67,2.08-3.85-1-3.41,1.22-4.77,2.06-1.73-.61-2.57-1.79-4.72-2.06-3.61,2.65-12.29,1.66-15.22,4.79,5.24-.11,7.1,2.21,7.61,5.55,5-1.32,8.82.18,13.31-.74-4.66,6.08-24.41,1.18-22.84,11.72,3.17,1.67,3.92,1.89,2.88,5.52,1.71.09,2-.85,3.76-.69.09,1.1-.44,2.62,1,2.75,1.35-2.19.44,2.82,2.87,2.07,1.17-2.69,5.41-3.3,8.53-1.37-4.1,2.31-5.59,6.49-10.41,8.26-4.36,1-5.85,4-11.39,4.12.76,2.21-1.52,2.13-1.92,3.45,4.35.39,5.92-1.22,10.44-.68,1.06-2,4-2.57,7.62-2.77,3.57-4.74,9.74-7.6,15.19-11h1.92c1-.65.28-2.52,2.82-2.07.07-.41.16-.81.93-.67,0,.41-.11.81-.93.67.4,3.08-2.55,3.65-3.8,5.52,7.81.62,9.7-3,16.16-3.45.43-3.09-.5-5.18-1-7.59,4.36.65,4.6-1.71,8.5-1.38a23.85,23.85,0,0,1,6.69,4.84c6,1.39,11.2,3.38,10.44,9.64,4.59-.45.21-3.82,3.83-4.14.22,5.83-.3,12.12,2.8,15.85-2.86,1.79-1,2.55,0,4.83,0,1.35-2.58.85-1.85,2.76-.46,7.55-1.08,12.61,0,20,2.52,1.14,4.19,2.93,6.62,4.14,2.62,2.66,2.43,7.39,5.69,9.63-1.1.13-.8,1.26-1,2.07,4,1,4.88,4.26,6.69,6.89,2.89-.52,2.74,1.21,5.63.67.14-2.93-1.83-2.29-1.85-6.16-.54,0-1.08-.59,0-.71v.71c2-.36,1.77,1,1.85,2a29.91,29.91,0,0,1,7.64,5.52c-.69,4.85,1.83,7.4,3.77,10.34,7.85,1.41,12.46,4.94,21.86,3.41a25.94,25.94,0,0,0,3.82,4.84c3.58-.53,4.55.84,7.56.69.9,1.66,2.79,2.58,4.75,3.44v2.07C-170.55-152.88-169.43-149.31-164.61-148.45Zm58-94.35c.47.36-.69.86-1,.68-.5-.36.67-.9,1-.68Zm-73.16-53.74c2.92.67-1,1.86-1,2.76-2.89-.66.44-2.32,1-2.76Zm-3.79,3.45c3-.32,3.36,1.27,6.65.71,0,2.73-3.72,2.82-6.65,3.42ZM-213-291.68c-.51-.38.63-.91.91-.7.45.35-.7.86-1,.7Zm-20,99.14a.47.47,0,0,1,.52-.39.47.47,0,0,1,.39.39c-.15.8-.91.4-.91,0Zm.91,1.38c2.26.24,2.16,2.15,3.81,2.76-1.23,1.74-4.62-.74-3.81-2.76Z" transform="translate(328.83 328.9)"/><path class="cls-2" d="M-40.19-287.58c1.88,0,1.18-1.86,3.81-1.38,3.51.89,5.54,2.9,10.43,2.76,3.23-1.65-4.55-3.06-1.88-4.13,1.42.35,2.4,1,3.79,1.37.75-2.38-1.06-2.91-1.91-4.13,7.84-.3,5.27-7.24,3.85-11a28.58,28.58,0,0,1,8.5-.68c-.24-3-5.1-2.72-7.57-4.14,3,.33,2.12-2.1,5.67-1.39.68-2.09-1.63-2-.95-4.13,3.4.38,2.34-2.44,5.72-2.06,2.38-.57,8.17,1.35,7.6-1.37.88-2.51-4.12-.7-4.75-2.08-2.24-.2-1.78-2.38-4.75-2.06-4.11-.41-8.54,2.48-10.45,1.39.59-3.48,8.37-1.75,9.48-4.82-2-2-6.14-2.41-11.42-2.07-3.05-.79-6.84-1.82-8.53,0-.79-1-3-1-4.73-1.4-3.82,1.84-13.15-.33-17.06,1.4-4.4.07-9.66-.56-11.44,1.39-.09,1.49,2.59,4.46.92,4.79-6.85-.78-10.72.48-17-.68-9.52.95-14,5.48-23.76,6.21-.9,2.49,4.26.56,3.77,2.77-2.74,1.66-7.83,1.62-10.4,3.44-2.35-.9-5.42-.76-6.67,2.05,3-.59,2.94,1.09,4.74,1.36,0-1.82,4.76-1.82,4.76,0,2.31-.4,6.45-3.06,6.64.72-4.06.27-9.76-.68-12.36.68.87,2.58,4.47,3.17,7.62,4.11,2.93.51,1.79-1.89,4.74-1.36a18.65,18.65,0,0,0,11.4,2.07c-.77,3.06.66,4.58,1.91,6.19-.32,1.61-1.51,2.6-1,4.82,3.79,1.35,4.38-3.17,6.66-.67.52,2.45-2.87,2.09-5.71,2.05.8,3.09,7.22,2.13,8.53,4.82-2.16,1.19-4.78,2-6.65,3.45,2.67.9-3,1.42-1.88,3.44,6.77,3.33,1.52,11.2,6.62,15.85h6.66c2.76.08,1.66,2.92,4.74,2.74,1-1.38,1.64-2.94,3.82-3.46-1.15-5.19,4.73-5.25,3.81-10.32,2.42,0,1.33-2.67,3.76-2.75,3.63,1.4,3.63-1.63,7.63,0a36.83,36.83,0,0,1,4.76-2.73c4.58-.83,6.61-3.49,11.37-4.14.39-2.48,8.39-3.08,5.7-5.52C-33.55-284.62-37.49-287.38-40.19-287.58Zm9.51-2.75c-2.54-1.23,0-4.55,2.85-4.12C-28.32-292.75-30.38-292.17-30.68-290.33ZM-24-323.39c-.07,2-2.14,2.56-3.79,3.43-2.91-1.33-7.2-1.64-12.36-1.38C-37-324.17-28.07-323-24-323.39Z" transform="translate(328.83 328.9)"/><path class="cls-2" d="M-157.95-313v4.16c2.89-.48,3.45.71,5.66.69.44-3.14,6.17-6.07,9.52-4.8,1.44,2.88-4.92.09-4.73,2.05,2.86,1-3.29,1.24-2.87,2.75,2.48-.42,3.39.28,2.87,2.05-2.24,0-2.81-1.19-5.72-.66.14,2-3.19,1.34-1.89,4.13,5.67-.54,9.76-1,12.34,2-7.54,1.19-12.41-2.72-17.1-1.36-.75,3.31,5.75,1.35,5.72,4.15,7.17-.74,16.78,3.05,19-2.08,2.47.21,4.07-.26,3.8-2.07.7-1.87-4.44.51-3.8-1.38h6.66c0-3.67,5.8-3.15,4.75-7.57,4.91-.11,5.38-3.43,11.44-2.77,1.16-1.66,3-2.78,6.61-2.75,1.22-1.71-2.11-3.34,0-3.45,4-1.32,9.81.69,11.4-3.43,0-1.13-2.65-.37-2.82-1.38-15.56,1.53-36.76-2-53.24,2.75-1.27,4.16,4.1,3.47,4.75,6.21-6.17.35-4.3-5.16-11.37-4.15-.3.95-1.39,1.33-1,2.78-1.53.05-3.3-.11-2.86,1.37C-161.63-313.6-158.33-314.38-157.95-313ZM-138-300.68c.49.37-.7.92-1,.71-.48-.36.72-.91,1-.71Z" transform="translate(328.83 328.9)"/><path class="cls-2" d="M75.68-314.45c.49-1.93,5-1,3.82-4.12-8.69-1-17-1.23-24.71-1.39a3.23,3.23,0,0,0,.93,2.78C61.72-315.79,66.65-313.62,75.68-314.45Z" transform="translate(328.83 328.9)"/><path class="cls-2" d="M38.67-311c-.12,1.7-1.78,2.13,0,3.44,3.9-.14,4-3.05,8.52-2.77-.23,3.07-4.66,3.07-4.73,6.21a9.18,9.18,0,0,0,6.67,1.39c-.46,2.15,2,2.2,4.73,2a52.15,52.15,0,0,1,2.85-7.56c2.51,1.83,4,4.49,10.46,3.45.84-5.25-5-5.57-7.6-8.25-.29,1.61-2.56-.81-3.85-.72-2.3.12-3.9-.35-4.67-1.36,2.21-1.84-.81-4-4.79-3.45-2.78,1.12,1.51,3.57-1,4.12-2-3.26-11.08-6.49-11.42,0C34.34-312.45,38-312.82,38.67-311Z" transform="translate(328.83 328.9)"/><path class="cls-2" d="M134.56-315.81c-.09-4.35-8.83-2.87-8.52.69C129.28-313,131-316.08,134.56-315.81Z" transform="translate(328.83 328.9)"/><path class="cls-2" d="M187.81-311.69c7.46-.91,15.29,2.4,17.06-2.07-2.23-2.66-10.92-3.78-16.11-2.05C186.62-315.72,188.3-312.88,187.81-311.69Z" transform="translate(328.83 328.9)"/><path class="cls-2" d="M130.83-286.2c-1.39-3.16-5.85-4.05-4.79-8.95,6.71-.42,9.21-3.88,14.23-5.53,6,.45,9-1.22,9.56-4.79H145c-.23.54,0,1.36-1,1.36-7.12.57-12.43,2.48-18,4.14.47,3.54-4.59,3.12-3.81,6.88-1.18,1.46-3.54,2-3.77,4.13a77.8,77.8,0,0,0,9.45,4.15C128.33-285.68,129.17-286.24,130.83-286.2Z" transform="translate(328.83 328.9)"/><path class="cls-2" d="M289.4-298.59c2.28-1.11,3.4-3,5.73-4.13-3.61-.34-4.38-3.17-7.63-2.75-.41,0-.88,1.61-1.89,1.36h-5.67C278.67-299.09,286.71-300.79,289.4-298.59Z" transform="translate(328.83 328.9)"/><path class="cls-2" d="M-13.6-267.61c.11-1.75,3.55-1.08,4.76-2,1-3.5-2.16-4-1.89-6.88-4.12.91-5.59-.44-9.5.67-2.58-.42-2.38-2.88-5.72-2.73,1.17,3.33-3.77,2.29-3.77,4.79,2.66.58,2.46-1,4.7-.67-.49,1.66-3.64,1.47-2.81,4.12,4.75-.9,3.72,2.37,6.66,2.75C-20.38-269-14.57-268.32-13.6-267.61Z" transform="translate(328.83 328.9)"/><path class="cls-2" d="M-143.74-267.61c-3.76-.73-1.28-1.74-3.76-3.45-2.88.51-2.81-1.17-5.72-.67-1.34,1.32-.49,4.2-4.73,3.47.06,2.4,3.12,2.75,6.62,2.72C-151.64-270.88-144.85-263.28-143.74-267.61Z" transform="translate(328.83 328.9)"/><path class="cls-2" d="M23.51-242.8c-1.32-.72-2.94-1.15-3.86-2.06,1.19-4.09-6.3-4.73-2.83-8.28-1.29-.7-2.88-1.13-3.83-2.08,1.38-.58,3-1,2.86-2.74-3.48-.22-5.3.77-7.57,1.36.7,3.76-1.5,5.36-1,9A20,20,0,0,0,12-246.23c.4,2.44-3.2,3.79-4.72,2.74-.74,3.11.66,4.62,1.9,6.22-1.67.64-5.09,0-4.78,2.07a97.9,97.9,0,0,1,15.21-.7C20.43-238.88,19.91-240.83,23.51-242.8Z" transform="translate(328.83 328.9)"/><path class="cls-2" d="M-2.22-240c2.19-.74,5.77-.46,7.62-1.39-1-2.88-.23-3,0-6.2H.67c-.06,3.08-2.16.87-3.8,2.07C-3-243.57-3.65-241.06-2.22-240Z" transform="translate(328.83 328.9)"/><path class="cls-2" d="M323.58-220.08c1.83.09.68,2.27,2.86,2.06,2.11-1.69,1.78-5.13,5.69-5.49-5-.52-8.09-2.4-13.28-2.76.69,3.27-1.07,4.73-1,7.59C320.51-216.88,320.25-220.46,323.58-220.08Z" transform="translate(328.83 328.9)"/><path class="cls-2" d="M301.76-198.72c-.17,2.43,2.24,3,3.8,4.11.66-2.49,3-3.81,5.71-4.82a5.76,5.76,0,0,1,2.82.71c3-2.65,9.3-2.91,12.35-5.52-.16-4.91-2.1-8.6-1.87-13.78h-3.84c1.17,3.23-.49,4.81,1,8.26a1.12,1.12,0,0,0-1,1.18,1.85,1.85,0,0,0,0,.23,28.38,28.38,0,0,0-8.55,4.11c-3.34,1.27-9.37.53-9.49,4.15-.43,1.89,5.17-.54,4.77,1.37Z" transform="translate(328.83 328.9)"/><path class="cls-2" d="M70-204.24c.28,1.93,3.15.56,5.68,2.08.68-2.57-1.46-3.05-4.72-2.77C71.11-204.35,70.57-204.28,70-204.24Z" transform="translate(328.83 328.9)"/><path class="cls-2" d="M281.78-180.8a6.17,6.17,0,0,1,2.85,4.12c4-.16,3.64-3.37,3.84-6.19C286.1-184.41,282.8-182.39,281.78-180.8Z" transform="translate(328.83 328.9)"/><path class="cls-2" d="M-157.95-182.88v2.74h3.8C-154.26-181.88-155.49-182.8-157.95-182.88Z" transform="translate(328.83 328.9)"/><path class="cls-2" d="M-147.49-179.46a3.5,3.5,0,0,0-1-3.41h-2.87C-151.68-180.53-151-178.95-147.49-179.46Z" transform="translate(328.83 328.9)"/><path class="cls-2" d="M-146.57-180.13v3.45c2,.27,2.53-.47,3.8-.71C-142.88-179.13-144.14-180-146.57-180.13Z" transform="translate(328.83 328.9)"/><path class="cls-2" d="M-148.49-169.11c3.41-.4,4.59.8,6.68,1.39.07-2,3.93-1.26,6.61-1.39-1.37-4.56-6.61-3.94-12.33-4.13.7-1.88-1.94-1.4-1.94-2.75-2.06-.78-5.22-.82-5.67-2.76h-14.19c-.42,1.31-2.06,1.73-1.93,3.45,3.87.27,3.85-2.27,8.56-1.38,4,.56,4.45,3.68,8.55,4.13,2.27.43,6.88-.87,7.58.69C-150-171.79-148.94-170.88-148.49-169.11Z" transform="translate(328.83 328.9)"/><path class="cls-2" d="M-139-176.68c-.29-1-2.36-.58-3.79-.71C-144.78-174.88-137.93-174.27-139-176.68Z" transform="translate(328.83 328.9)"/><path class="cls-2" d="M285.61-169.11a16.9,16.9,0,0,0,5.7,4.13c1.19-2.14,4.41-2.75,3.82-6.2C292.51-173.67,285.51-172.54,285.61-169.11Z" transform="translate(328.83 328.9)"/><path class="cls-2" d="M262.79-167c2.68-.39,2.68-2.68,3.82-4.14a7,7,0,0,0-3.82-.68C261-169.18,261.56-171.3,262.79-167Z" transform="translate(328.83 328.9)"/><path class="cls-2" d="M-158.93-170.5v2.78c3.2-.74,3.27.22,6.64-.69C-151.64-171.17-155.87-170.38-158.93-170.5Z" transform="translate(328.83 328.9)"/><path class="cls-2" d="M-133.29-167.72c3.43.17,6.59.15,5.71-2.78h-5.71Z" transform="translate(328.83 328.9)"/><path class="cls-2" d="M-33.55-167.72c0,1.35-2.58.87-1.87,2.74h3.78C-31.36-166.56-31.9-167.57-33.55-167.72Z" transform="translate(328.83 328.9)"/><path class="cls-2" d="M293.22-156.71c2,1.48,2.69-.35,5.68,0-.31,1.61-2,3,1,3.44,1.34-2,4-3.07,8.53-2.75.89-3.17-3-2.85-4.74-4.13.23-2.26-1.12-3.33-3.79-3.45-1.34.89-.94,3-1,4.82C295.72-159.95,294.79-158.36,293.22-156.71Z" transform="translate(328.83 328.9)"/><path class="cls-2" d="M199.16-154.65c1.36,4.08-3.61,4.92,0,6.88,3,.34,2.53-1.84,4.77-2.06C203.14-152,201.17-153.34,199.16-154.65Z" transform="translate(328.83 328.9)"/><path class="cls-2" d="M261.86-136c.93,2.77,5.06,3.21,4.75,6.88,6.16-1,5.22,3.09,11.38,2.06-.27-1.59,2.73-.76,2.87-2.06-.73-.16-1.88,0-1.89-.71,3.12-.94,1.56-5.25,4.78-6.17-2.19-2.24.78-4.58-1-6.22,1.66-.61,3.28-1.26,2.85-3.42-2.3-1.31-4.15-3-8.55-2.77C276.17-141.26,263.51-142.65,261.86-136Z" transform="translate(328.83 328.9)"/><path class="cls-2" d="M243.79-140.88c-1.43-1.6-4.43-2.71-3.75-4.8-2.6.48-1.93-1.38-3.82-1.38.12,3-2.32-.08-4.77.68,0,8,13.35,6.4,11.44,15.83,4.67.38,6,4.91,10.4,3.45,2.19-2.64-2-5.65-1.84-8.94C248.51-137.45,245.13-139.42,243.79-140.88Z" transform="translate(328.83 328.9)"/><path class="cls-2" d="M297-135.36c-.2-3.06-6-2.09-7.64-4.13-4.87,2.83-8.25,10.49-.93,13.07-.2-2,.22-3.5,1.89-4.13,2.09,1.33,2.22,3.51,5.7,2.09-.49-2.88-3.67-3.81-3.79-6.9A4.59,4.59,0,0,0,297-135.36Z" transform="translate(328.83 328.9)"/><path class="cls-2" d="M317.89-138.12c-3.09-1.4-10.68-1.14-10.43,2.08C310.71-134.57,317.65-135.26,317.89-138.12Z" transform="translate(328.83 328.9)"/><path class="cls-2" d="M328.36-135.36h-6.65c-.85,1-1.42,2.19-3.82,2.07-3,.52-1.78-1.92-4.7-1.39.27,1.8-3.75.56-2.87,2.74.12,1.56,2.37-.86,4.7,0,4.24,2.48,9.79,4,13.34,6.9v4.16c5.08-2.23,6.6,1.41,10.44,2.06,3.34-.1,2.29-3.4,6.65-2.75,2.23.94,4.75,5.24,8.54,2.75a3.81,3.81,0,0,1-2.85-4.11c-2.49-1.65-6-2.54-7.58-4.84v-2.11C336.23-130.06,334.24-134.11,328.36-135.36Z" transform="translate(328.83 328.9)"/><path class="cls-2" d="M278-119.52c.53-2.44-3.31-1.7-2.82-4.14-7.75.15-13.27-1.43-19-2.76-.83,1.23-2.65,1.77-1.86,4.14C263.34-122.21,267.65-118.66,278-119.52Z" transform="translate(328.83 328.9)"/><path class="cls-2" d="M348.27-92.66c.38-3.25-1.66-4.74-.94-8.27-1.86-.46-2.16-2.08-3.77-2.75-.34-5.27-6.81-6.1-5.71-12.4-1.77.15-2.08-.77-3.79-.7-2.44,2.84,1,10-2.88,11.72-3.73.9-1.92-2.27-5.7-1.39-.15-1.92-4.48-.83-3.77-3.43-.49-2.18,4.68-.26,3.77-2.73-3.3-2.68-13-.7-18-2.08-1.65.41,0,3.25-1.9,3.43a46.85,46.85,0,0,0-9.5,2.08c-1.19,2.08-.34,5.73-3.79,6.2-2.26-1.63-4.69.1-7.64,0-1.84.47.23,3.85-1.87,4.11-2-.38-1.84-2.06-3.79-.67-2.36,1.72-1.25,6-4.74,6.88-2.14,1-6.36.46-7.62,2.07,1,3.06,3.33,6.88.95,10.33,1.86.49,2.51,1.85,2.85,3.44.52,3.14-1.69,4.29-1,7.57,2.84-.18,3,1.56,5.75,1.39,4-1.25,6.29-3.68,13.3-2.76,3.35-3.07,10-3.76,18-3.44a12.87,12.87,0,0,1,5.66,6.2c3.72-1.29,2.57,1.59,6.67,0,0,1.81.34,3.92-1,4.82,6.07,2.56,9.67,2.7,19,2.77,2.39-1.25,4.16-3,7.59-3.49-.46-3.52,4.53-3.1,3.77-6.86,3.31-.16,2.48-3.29,5.72-3.44-1.09-2.44,1.63-3.91,1.89-6.2.52-4.21-1.84-8.51-2.84-12.4C350.66-93.57,349.11-90.63,348.27-92.66Z" transform="translate(328.83 328.9)"/><path class="cls-2" d="M127-114.69a17.14,17.14,0,0,0-3.81,6.89c-4.12.68-6.22,2.78-8.52,4.82-.77,2.38,1.37,2.66.93,4.81-.85,1.45-1.51,3.06-2.88,4.14,2.08,3.11-.65,5.86,2.88,8.27,3.08.13,4-1.23,7.59-.7,2.06-3.08,1.26-4.45,3.81-7.57v-3.45c.23-.77,1-1.07,1.89-1.39-1.73-3,1.75-5.87,2-11C127.26-109.88,130.91-115,127-114.69Z" transform="translate(328.83 328.9)"/><path class="cls-2" d="M400.51-67.88c.19-2,.13-3.77-2.83-3.44v5.49c-.77,2-4.52,1.8-3.81,4.85,6.38-.68,2.17,2,1.89,4.12,6-.21,6.22-4.71,8.57-7.58,1.42-1,4-1.24,4.72-2.77C406.78-69.32,405-67.6,400.51-67.88Z" transform="translate(328.83 328.9)"/><path class="cls-2" d="M390.07-59.59c-.81,1.45-2.85,2-2.81,4.12a7.16,7.16,0,0,0-3.84.69c-1.6,1.37-2.2,3.45-4.72,4.12-3.92,1.08-5.08,4.12-6.69,6.9,3.11-1.12,5.16-.34,8.55,0,.9-1.64,3.83-1.83,2.86-4.83h3.84c.26-3.93,7.45-2.82,7.55-6.88C394.51-57.76,392-58.44,390.07-59.59Z" transform="translate(328.83 328.9)"/><path class="cls-2" d="M325.51-57.55c-1.06,1.06,3.18,4.17,3.83,6.22,4.62-.32,7.6-1.83,6.65-6.22C331.81-57,327.16-58.39,325.51-57.55Z" transform="translate(328.83 328.9)"/><path class="cls-2" d="M-104.79-36.2H-101C-100.33-38.88-104.94-38.44-104.79-36.2Z" transform="translate(328.83 328.9)"/><path class="cls-2" d="M131.72-158.78c-4.06-.41-3.84,2.25-7.56,2.07h-8.57c-.45-4.71-5.18-6.35-8.57-8.95.84-4.53-5.64-3.71-3.79-9-1.61-1.56-4.57-2.19-5.69-4.12.85-1.94-1.07-4.92-.22-5.43-.24-.49-.53-1-.86-1.63-.27.18-.66.29-.79.19-.35-.26.11-.58.5-.7-1.72-3-4.16-6.86-5.1-8.33h-.2c-6.91-1.83-15.52-2.48-24.7-2.73-2.74.52-2.27,3.39-4.74,4.14-4.36-3.27-13-3.45-17.06-6.89.73-2.39-1.08-2.93-1.91-4.15,2.22-.19,2.17-1.84.92-2.75a43.91,43.91,0,0,0-14.25,2.18c-7.7-.33-14.38.1-18.06,2.77-.81-1.45-2.75-2.12-5.67-2.08-.79,2.43-4.2,2.92-6.63,4.15-2.59,3.23-1.62,7.45-3.78,10.32-1.43,1.81-6.52,3.68-8.59,5.52-.15,4-2.34,6.57-4.76,9v17.9c3.29,2.68,6.16,5.67,7.63,9.63,4.37,1.88,7.31,4.82,13.28,5.51a66.53,66.53,0,0,1,13.3-.68c2-1.12,1.84-3.71,5.74-3.44,1.69.11.54,2.32,1.92,2.74,4.37-.44,6,1.11,9.46,1.38,1.62-.6,2.41-1.92,5.7-1.38.95,5.32-2,7.76-1.92,12.42,2.71,3.53,7.34,6.2,5.71,11,2.51,2.32,2.68,6.32,3.8,9.64-2.34,3.13-1.8,8.3-3.8,11.7a21.67,21.67,0,0,1,8.59,11v6.21c4.21,3.57,4.1,10.29,8.52,13.77,9.13-.48,13.71-4.25,21.85-5.5,1.44-3.79,4.33-6.5,8.52-8.27-.48-2.68,1.71-3.37.93-6.21,1.7-.62,2.44-1.92,5.72-1.39.1-7.94,4-13.14,11.42-15.83a45.09,45.09,0,0,0,0-19.28,30.08,30.08,0,0,0,4.7-8.95c2.28-1.12,4.19-2.48,6.67-3.46,4.52-4.75,8.62-9.83,13.32-14.44C133.42-153.77,134.68-157.29,131.72-158.78Z" transform="translate(328.83 328.9)"/><path class="cls-2" d="M395.78-274.48c-2.53-.84-6.21-4.53-8.52-1.39a3.66,3.66,0,0,0-1-3.44c-5.17-1.35-7.92-4.41-16.15-3.45-1.1-1.28-3.67-1.46-4.75-2.75-6.22.59-7.55-2.36-14.27-1.39-1.32,2,2.61,3.53,0,4.14-2.75-.3-2.25-3-4.73-3.44-2.8,2.13-7.93.21-13.38,1.39-3.39-1.62-3.14-5.95-10.37-4.82-1.38.15-.33,2.05-1.93,2.05-4-1.25-7.82-2.6-11.38-4.1a2.55,2.55,0,0,1-1.89,1.35c1.19-2.7-2.27-2.05-4.77-2.05,2.34-1.64-1-1.56-1.86-2.77-4.58,1.21-4.25-.4-8.56-.68-.33.92-2.41.57-3.8.68-1,1.28,2.84,2.31,0,2.77-8.17-.94-18.53,1.22-25.68,0-2.4-.44-3.32-2.55-5.66-2.07-4.41.73-7.33-.72-10.48-1.38-1.11-.27-2.62.16-3.76,0-2.39-.33-4.19-2.19-9.5-1.41.36-1.76,2.8-2.07,2.83-4.11-1.34-2-4.39-2.78-5.69-4.84-2.87.93-7.27.73-11.41.72-2.37-.58-2-3.13-5.7-2.77-2.22.69-3,2.37-2.84,4.82-4.72-1.11-3,2.42-6.65,2.07-1.83-.28-.77-2.68-3.8-2.07-2.46,1.9-5.9,3.09-11.37,2.74-1.69.89-2.52,2.34-5.71,2.09-1.33.88-.43,3.36-2.89,3.44-2,.43-6.57-1.12-5.64,1.37,0,2.53,5.53,1,4.72,4.15-3.49-.75-4.43-3.22-9.52-2.75,0,1.8.53,4-1.9,4.12-1.1-.82-1.1-2.45-1-4.12-3.7-.61-1.53,3-5.68,2.05-1.49-1.23-1.3-3.67-5.7-2.76-2.68,2.89-6.31,5.09-9.53,7.58-6.15.33-5.69-1.29-12.32-1.39-1.54,3.4,4.91,1,3.79,4.14-4-.66-8.22.35-14.25,0-4.28,1.26-6.62,3.93-11.39,4.82v-4.14c-2.36.12-4.58.13-5.69-.68.23,3.86,0,7.36-5.7,6.89.31,2.54-3.48,2.06-5.7,2.76-2.36.92,1.68,2.06-1,2.75-5.56.81-5.88-5-5.68-6.18,4.41,0,9.27-.31,12.35.67,2.53-4.31-5.34-6.54-11.42-6.89-1.48-1.67-4-2.56-7.56-2.75a14.44,14.44,0,0,0-4.77-4.12H68c-2.57,1.3-5,2.79-7.54,4.12-.44-1-1.25.28-2.9,0-3.39,2.6-7.64,4.55-11.37,6.91a14.72,14.72,0,0,1-5.7,7.54c-.18-.79-1.75-.56-2.85-.67V-269c-6,.27-6.66,4.37-8.58,7.6,1.92,1.62,2.2,4.4,1.92,7.56.92,1.86,6,.75,7.62,2.08-2.08,2-3.81,2.79-3.81,4.83,2-.33,1.79,1,1.89,2.07-3.38,0-5.51,1.06-8.53,1.34-.87,1.25-2.69,1.77-1.93,4.16-5.39-1.17-2.12,4-6.64,3.43.15.82-.2,1.23-1,1.38-4.16-.3-5,1.87-7.59,2.78-2.29.37-4.84.58-4.69,2.74,1.23.94,4.11.68,6.61.69-.45,3.11,4.4,2.33,3.83,5.52-1,.91-1,2.56-2.88,2.74-4.42-1.64-8.35.62-14.22,0-1,2.28,2.11,7.5-1.94,7.59.7,2,2.89,3,1.94,6.19,4.41-.68,5.74.9,8.56,1.37,3.54-1.32,4-1.32,7.57,0,2.16-2.78,5.43-4.8,4.73-9.64,4.18-.88,3.47-5.29,8.55-5.51,4,1.73,5.66-.48,9.54-.68-2.69,2.68-1.33,7,0,10.33,6-.39,2.27-3.9,2.83-7.59-1,0-1.2-1.21,0-1.37V-218c2,.21,1.88,1.85,2.87,2.77,4.61.08,7.47,1.41,8.51,4.14-.15,1.49-2.37,1.46-4.76,1.35-.12,2.42,3.36,2.18,4.76,3.46-.45-3.1,2.56-3.65,4.75-4.81.53-1.56-1.79-1-1.91-2.09,1.76-2.15,3.23,2.33,4.81,0-2.61-3.64-14.42-4.25-11.4-9.62,2.82,3.15,8.19,4.63,11.4,7.57.53.53,1.34,2.15,1.85,2.76.75.86,2.31,1.65,1.92,2.73v4.13c1.23.94,4.14.68,6.66.7,1.59-2.37-1.71-5.76.92-8.27h2.84c-1,2.71-.15,2.57-.91,5.49,2.12-.24,1.27,2,2.84,2.78,3.45,1.76,9.79,1.22,12.33,0,2.85,1-2.47,3.58,1.89,3.46,3.92.5.21-4.46,4.8-3.46v4.12c-2.37,1-1.38,4.47-3.37,5.74,1.66,3,5.6,10.28,6.16,11.41h0c2,1.52,3.76,4.38,2.86,5.6,4,2.88,6.63,6.67,10.47,9.65,2.26,2.86,1.9,7.17,6.67,9.63,6.62-1.6,11.26-4.66,19-5.53,1.33-.4.17-2.63,1.88-2.73,4.12-.48,5.85-2.67,9.52-3.46-.68-3,2.78-3.06,2.86-5.49-1.64-2.48-6.53-2.63-5.73-6.88-3.59-.35-6,.19-7.58,1.34-.78-2.6-4.28-3.3-3.82-6.87-3.07.18-2.74-2.12-4.71-2.76,1.41-.36,2.38-1,3.79-1.38,5.25,2.38,3.67,9.72,13.31,9,.38,1.33,2.69,1.27,1.88,3.45,4.59.34,5.27-2.13,9.52-2.06,1,.44,1,1.56,2.84,1.39,6.61-.72,8.25,2.26,12.29,3.41-1.57-.24-1.77.55-1.84,1.4,1,1.31,4.35.93,5.72,2.06-.51,2.17,1.69,2.43.88,4.82,2.89,2.3,4.12,5.76,5.72,9,2,1.32,4,2.64,4.8,4.81v4.15c1.18,1,4.1.66,6.61.68,1.26-4.4,4.66-7.19,3.79-13.09h3.81v-2.77c3.59,1,1.84-1.86,4.74-1.35-.27-3.17,3.47-3.48,4.76-5.52a21.71,21.71,0,0,1,8.54-2.75c2.16,1.89,2.17,5.33,5.73,6.22.33,1.62-1.76,1.46-1,3.4,1.07,2.25,7.56.52,9.56,2.06-1.28,1.47.48,2-1,4.16,2.48.72,4.23,2,4.75,4.13-.35,1.3-2.71,1.24-1.88,3.45C237.4-150.41,240-150,239-147c4.57,2.87,8.89,5.95,14.24,8.26.26-4.54-4.47-5.45-4.72-9.65-2.65-1.32-5.17-2.69-6.67-4.82.44-2.23-1.25-5.94,1.89-6.2,2.09,2,3.58,4.33,7.66,4.82a3.06,3.06,0,0,1,.89,2.75c9.23-.88,11.48-6.84,10.45-15.14-1.22-.69-3.49-.68-4.74-1.37,1.21-3-4.55-2.83-1.9-4.83s2.48,2.26,6.64,1.38c.68-2.95,5.51-2.92,10.46-2.77,3-3.32,7-5.87,8.53-10.33,1.55.2,1.63-.64,2.85-.66,1.6-2.8-.21-8,2.87-9.64-2-.63-2.87-2-2.87-4.17-1.6-.86-3.69-1.41-3.77-3.43-.42-1.65,1.75-1.5.92-3.44,2,.22,3-.13,2.85-1.41,2.73-.87-4.28-4.11,1.93-4.11,1.08,2.2,4.36,2.78,5.71,4.83-.93,3.64,1.78,4.68,4.77,5.52,5.69-3-.2-10.58,2.83-15.84,2-1.31,4.85-2,7.59-2.77,2.2-3.22,4.14-6.62,7.56-8.95,1.31-5.55-2.16-11.27,0-15.15-1.3,3.93,2.19,4.39,2.87,6.88.18,4.27.47,8.4,4.77,9.64,1.76-1.22-.78-1.75,0-4.11,2.59-.09,1.91,1.14,3.78,0,.17-2.19-2.52-2.34-1.87-4.85-3.44-.47-4.33-2.81-5.72-4.81-.35-2.48.34-5.76-2.82-6.2-2,.17-.26,3.06-2.84,2.77-1.61-5.07-8.07,3.16-10.5-2.07.66-1.61,2.41-2.37,3.83-3.44,1.09-2.2.71-5.43,3.8-6.23,2.18,1.7,1.73-1,4.7-.68,4.48.46,8.62,1.81,14.29,1.39-.33,1.18.73,1.31,1.87,1.37,1.25-.95,4.15-.66,6.67-.7.48-2.17-1.69-2.41-.94-4.8,1.92-.2,1.84-1.86,3.79-2.07,1.95.21,1.87,1.87,3.8,2.07-.44-1.52,2.83-3.8,3.77-2.07-3,4.42-7.5,7.85-8.53,13.76.62,1.87,2.71,2.64,3.82,4.15.41,2.63,1.11,5.16,3.77,6.19,2.37-1.74,3.77-4.16,6.66-5.53-.87-3.4,3-2.9,1-5.48.25-1.4,2.51-1.37,2.82-2.76-1.4-.82-4.26-.62-3.81-2.76.93-6,7.16-4.74,14.26-4.14,1.37-1.06,1.24-3.2,2.85-4.12,5.54-.3,9.71-2.19,13.26-2.08,0-2.94-4.7-2.51-4.7-5.5,2.23-.22,1.77-2.38,4.7-2,5,.07,4.3,4.24,10.45,3.41C396.06-270.22,394-272.45,395.78-274.48ZM60.51-262.78A14.61,14.61,0,0,0,68.05-260v6.88c-2.13-.28.54-4.05-3.77-2.75-2.1,2.38-.77,7.23-3.77,9-3.17.22-5.51-.33-7.65,0-2.64.39-3.2,2-5.69,2.07.3-.85-2.72-2.38-2.82-.7-2.22-.2-2.22-1.88,0-2.07a8.83,8.83,0,0,1-3.81-6.89c4.74.29,2.92,9.7,11.39,6.89,2.14-2.8,3.6-6.1,5.68-9a13.22,13.22,0,0,0-1.91-4.14c.57-6.47,7.34-8.46,10.45-13.07,1.14-.09,1.73.15,1.9.7C67.31-268.38,59.66-268.69,60.51-262.78ZM70.94-258c-.06-2.08,3.35-1.7,5.69-2.06.09,2.14-2.84,2-5.67,2.06Zm7.6-26.85c-.5-.37.68-.89.94-.7.5.37-.66.89-.92.7Zm18,13.75c-.5-.35.67-.87.95-.67.52.35-.64.85-.9.67Zm70.28-11c-1.81-.28-4.08-.22-3.79-2.05-2.85-.14.89-2.87,0,0,.72,1.08,4.68-.18,3.84,2Zm58.85-12.37c-.46-.35.73-.91,1-.7.57.35-.65.86-.95.68Zm2.89-.7c-.48-.36.69-.87.94-.68.54.3-.61.85-.89.66Zm2.84-1.39c-.49-.35.7-.89,1-.7.5.34-.68.87-1,.68Zm42.78,86.78c1.33-1.3,2.1-3,5.71-2.73,0,1.07-.46,2.62.92,2.73-1.38,2.06-4.11-.58-6.58,0Z" transform="translate(328.83 328.9)"/><path class="cls-2" d="M106.1-239s-6.39-.47-9.59-1.87a8.49,8.49,0,0,0-8.9-2.33c.45-3.4-1.83-6.66-6.85-6.66s-3.88-7.9-.46-9.91,2.74-3,0-5-3.88-9.61-3.88-9.61l5.1-11.17h-.11a14.44,14.44,0,0,0-4.77-4.12H68.06c-2.57,1.3-5,2.79-7.54,4.12-.44-1-1.25.28-2.9,0C54.23-283,50-281,46.25-278.65a14.72,14.72,0,0,1-5.7,7.54c-.18-.79-1.75-.56-2.85-.67V-269c-6,.27-6.66,4.37-8.58,7.6,1.92,1.62,2.2,4.4,1.92,7.56.92,1.86,6,.75,7.62,2.08-2.08,2-3.81,2.79-3.81,4.83,2-.33,1.79,1,1.89,2.07-3.38,0-5.51,1.06-8.53,1.34-.87,1.25-2.69,1.77-1.93,4.16-5.39-1.17-2.12,4-6.64,3.43.15.82-.2,1.23-1,1.38-4.16-.3-5,1.87-7.59,2.78-2.29.37-4.84.58-4.69,2.74,1.23.94,4.11.68,6.61.69-.45,3.11,4.4,2.33,3.83,5.52-1,.91-1,2.56-2.88,2.74-4.42-1.64-8.35.62-14.22,0-1,2.28,2.11,7.5-1.94,7.59.7,2,2.89,3,1.94,6.19,4.41-.68,5.74.9,8.56,1.37,3.54-1.32,4-1.32,7.57,0,2.16-2.78,5.43-4.8,4.73-9.64,4.18-.88,3.47-5.29,8.55-5.51,4,1.73,5.66-.48,9.54-.68-2.69,2.68-1.33,7,0,10.33,6-.39,2.27-3.9,2.83-7.59-1,0-1.2-1.21,0-1.37v1.37c2,.21,1.88,1.85,2.87,2.77,4.61.08,7.47,1.41,8.51,4.14-.15,1.49-2.37,1.46-4.76,1.35-.12,2.42,3.36,2.18,4.76,3.46-.45-3.1,2.56-3.65,4.75-4.81.53-1.56-1.79-1-1.91-2.09,1.76-2.15,3.23,2.33,4.81,0-2.61-3.64-14.42-4.25-11.4-9.62,2.82,3.15,8.19,4.63,11.4,7.57.53.53,1.34,2.15,1.85,2.76.75.86,2.31,1.65,1.92,2.73v4.13c1.23.94,4.14.68,6.66.7,1.59-2.37-1.71-5.76.92-8.27H74.7c-1,2.71-.15,2.57-.91,5.49,2.12-.24,1.27,2,2.84,2.78a9.2,9.2,0,0,0,2.34.78l1.32-17.28a163.83,163.83,0,0,0,22.13-9.84C106.32-235.76,106.1-239,106.1-239Zm-26.59-46.5c.48.37-.68.89-.94.7C78.06-285.18,79.24-285.7,79.51-285.51Zm-19,22.73A14.61,14.61,0,0,0,68.05-260v6.88c-2.13-.28.54-4.05-3.77-2.75-2.1,2.38-.77,7.23-3.77,9-3.17.22-5.51-.33-7.65,0-2.64.39-3.2,2-5.69,2.07.3-.85-2.72-2.38-2.82-.7-2.22-.2-2.22-1.88,0-2.07a8.83,8.83,0,0,1-3.81-6.89c4.74.29,2.92,9.7,11.39,6.89,2.14-2.8,3.6-6.1,5.68-9a13.22,13.22,0,0,0-1.91-4.14c.57-6.47,7.34-8.46,10.45-13.07,1.14-.09,1.73.15,1.9.7C67.31-268.38,59.66-268.69,60.51-262.78ZM70.94-258c-.06-2.08,3.35-1.7,5.69-2.06.09,2.14-2.84,2-5.67,2.06Z" transform="translate(328.83 328.9)"/><path class="cls-2" d="M-61.1-122.28c.05-2.56-.95-4.36-1.88-6.18-1.67-1.3-2.79.29-4.74.67-1.5-2.35-5.18-3.14-8.52-4.15H-82.9c-1.7-2-8.06-.59-8.56-3.42-2.53,0-5.62.38-5.67-1.39,2.73-3.21-2.82-12-11.43-8.93-3-1.29-5.19-3.13-5.68-6.22-5-1-8.51-3-13.34-4.12-1.23.25-1.48,1.2-2.83,1.37-1.29-2.48-5.91-2.6-6.68-5.5-3-.62-2,1.77-3.78,2.07-2.21-.48-2.52-2.3-4.75-2.76-.86,1.2-1.73,2.38-4.75,2.06-1.45,2.85-5.21,4-7.54,6.18a28.6,28.6,0,0,1-3.06,3.87c.63,1.28,1.47,2.41,2,3.7,0,1.39-2.57.91-1.88,2.77.44,3.55-3,4.24-3.8,6.9-1.84,4.8,3.83,7.43,0,9.64,1.66,1.31,4.69,1.63,6.66,2.77-.78,1-3,1-4.75,1.36-.69,5.54,3.49,7.57,8.55,9,.38,1.64-1.76,1.48-1,3.43,3.55,2,4.82,5.67,10.47,6.2C-143-99.88-140-97.7-140-93.32c-1,.9-.89,2.53-1.86,3.43A2.9,2.9,0,0,1-140-87.13c-2.55,3.1,1.14,6.72,0,11-5.13,2.22-2.77,9.93-4.72,14.46,1.4,1.91,3.88-1.19,4.72.71.86,3.37-3.25,3.15-4.72,4.8-1.21,2.24,3,.54,1.87,2.78-1.81,1.66,1,3.33-1,5.48.93,4.69,4.13,7.09,2,11,2.8,1.61,2.51,5.49,5.68,6.89-.14,1.22,1.12,1.44.93,2.74a20.52,20.52,0,0,1,5.69,2.06c3.56-.42,9.8,1.14,10.43-1.38a9.26,9.26,0,0,1-5.68-2.76c.71-2.32-3.84-.87-2.85-3.43-.32-3,2.75-3.54,2.85-6.21,2.46-.08,3.69-1,3.82-2.74.49-2.44-3.34-1.68-2.85-4.14,2.55-2.12,6.45-8.93,0-9.64,6.36,1.17,6.14-2.4,7.58-4.8,5.12.24,6.86-2,10.47-2.77.63-3.21-1.52-4.43-1.92-6.87h7.61c0-.69,1.17-.56,1.91-.71.53-1.68.81-3.53,3.8-3.44C-94.72-78-90.8-78.83-88.7-81v-4.8c1.81-1.23,3-2.92,4.74-4.15,4.53-1,4.53-1,8.55-2.06.43-4.42,5-8.25,1.9-13.09a3,3,0,0,0,1.9-3.45c1.54.22,1.66-.64,2.87-.67.35-2.28,2.8-3,3.81-4.81,2.52-1.8-.14-3.33,2.81-4.14C-62.71-120.25-61.1-120.66-61.1-122.28Z" transform="translate(328.83 328.9)"/><path class="cls-2" d="M-164.61-148.45c1-.91.91-2.56,2.84-2.74a6.54,6.54,0,0,0,.18.88,29.61,29.61,0,0,1,3.53-3.64c-.38-1.32-1.66-2-3.71-2.07-2.45.72-3.52,2.47-6.69,2.75-2.22-3.36,1-6.55,0-11-1.71-2.38-8-1.48-11.36-2.73,1-3,3.7-4.66,2.86-9a36.76,36.76,0,0,1-9.49,0c-1.74,1.48-.91,4.83-3.81,5.49-12.71.5-4.76-11.81-7.6-17.21,3.37-.58,5.37-2.06,8.56-2.74,5.2-.33,6.42,2.21,11.37,2.05-.07-1-.19-1.93,1-2.05,4.57.16,10.68-.88,11.39,2.05-.41,4,2.1,5.86,6.64,6.21-1.14-3.55-.63-4.63,0-6.9-1.07-1-2.7-1.68-2.84-3.45,1.59-4.56,5.79-7.28,12.33-8.27.87-2,.87-2.1,0-4.12a8.34,8.34,0,0,0,4.8-.7c-2.37-3.77,3.09-2.94,1.87-7.57,3.16-.93,6.17-1.92,9.48-2.75.5-2.16-2.88-1.56-1.88-4.13,3.47-2.08,8.74-2.85,13.34-4.13.66,1.87-1.93,1.39-1.93,2.75,3.8-1.15,7.83-2.12,10.47-4.12-2.35-1.08-7.08-.43-6.67-3.45.53-1.91,3.65-1.92,5.72-2.74.38-1.68-1.76-1.5-1-3.46,4.62,2.27,10-3.33,13.3-2.07-2.19,3.69-6.72,5.68-8.54,9.64,3.52.49,4.08-1.18,7.57-.68.09,1.07-.42,2.63,1,2.76.94-1.71,3.64.94,6.65,0-.46-1.59-1.86-3.52,0-4.83-3.46-.24-4.35-2.36-5.71-4.14a41,41,0,0,0,0-9c-1.82-1.27-2.36,0-4.73,0,.1-3.25-4.39-3.24-4.75-6.18a3.1,3.1,0,0,0,.94-2.75c-3.66-1.51-2.33-6.61-7.62-6.9-.48,1,1.14,3.57-.94,3.46-2-.41-6.24.87-6.65-.71v-6.87c-5.08,1.66-4.15-1.61-8.56-2.07-2.5,1.9-2-.8-4.72-.67-2.3-.28-2,1.24-4.76.67,1.42,6.87-2.58,10.73-1,15.84-1.61.2-4.72-1.95-5.7,0,1,2,3.17.44,3.82,1.37-3.32,1.51-3.39,5.34-4.75,8.29-2.17-2.11-2.6-5.49-3.78-8.29-1.94-1.37-1.88.32-3.8.7-.82-2-1.41-.75-3.82-.7a26.65,26.65,0,0,0-10.41-4.81c1.5-3.42-3.34-2.19-2.93-4.82,2.07.33,1.85-1,2-2.06,3.14-1.18,4.47-3.63,7.59-4.84,2.1-2.41,3.55-5.24,8.58-5.5.07-1.23-1.17-1.45-1-2.75a90,90,0,0,0,14.19-2.73,12.84,12.84,0,0,1,1-6.89c-1.12-1-3.59-1.07-4.73-2.05,3.76-.23,7,0,8.52,1.36,1.78-2.09,4.56.8,7.61,0-1.33,3.51,4.33,1.91,3.79,4.85-.93,5-11.26,3.28-12.34,8.24,1.57,1.63,5.53,1.51,9.51,1.36,5.9,1.94,8.23,6.46,16.17,6.91-2.13-3.57,1.58-3.47.95-7.57-.42-1.8-2.88-2.08-2.89-4.15,3.62.15,4.62,2.19,7.62,2.75-.27-1.79-.34-3.42,2.85-2.75-.67-2.11,1-2.51.92-4.13-2.56.48-1.8-1.42-2.84-2.06a59.86,59.86,0,0,1-8.55-2.08c.28-1.4,2.6-1.32,2.89-2.73-1.23-1.66-4.18-2.05-3.85-4.82h-8.52c.45-2.18-2.55-1.82-2.85-3.46-4-.4-6.28.5-9.5.71.56-4.27-7.51-2.92-8.56-.71.35-2.57-.76-4-3.8-4.15-4.9,2.2-10.6,9.24-4.74,13.11,1.4.38,4.88-.79,4.74.68-1,2-3,3.32-4.74,4.85-2.43-1.71,2-1.5,1-4.16-3.24-1.54-6.33-3.23-7.62-6.2-3.62.33-3-2.38-7.56-1.37.33,1.65-1.79,1.49-1,3.43,3.26.94,2.06,6.41,0,7.59a3,3,0,0,1-1.85-3.45c-4.78-.49-4.78,2.55-8.61,2.76-3.53-1.1-7.4-1.95-9.47-4.13,4.24-.53,5.72.92,9.47.68,2.1-1.43-.43-2,0-4.13,5.27-.78,7.36-3.86,12.33-4.8-1.72-2.17-1.37-3.79-1.87-5.51h-14.23c-2.1,1.93-6.83,1.93-7.63,4.8-.49-1-1.4-1.71-1.89-2.74-2.51,0-5.92.63-4.73-2.06,7,1,15.42-2.51,21.83-4.15,0,3.17,8.13,2.37,9.5.69-.66-1.57-.85-3.5-1.87-4.84-5.6.54-8.35,3.19-14.28,3.47v-4.15c-5.19-1.27-6.12,3.24-2.84,4.13-5.44.48-8.52-.76-13.27-.7,1.41,3.57-4.39,1.91-4.75,4.14,2.36.88,2.92-.35,3.77.69-.61.92-2,1.28-3.77,1.35-1.53-3.93-9.07-3.54-16.17-3.44-.5,3.34-2.93,5.24-5.72,6.9-.17,2.17,2.49,2.33,1.93,4.82,4.69.2,7-1.31,10.4-2.06-1.94,3.73,5.22.82,5.73,2.76.68,1.87-4.47-.5-3.82,1.36,0,3.73,10.39-.17,8.58,4.82,3.55-1.52,4.65-1.08,8.52,0h1c-.3-.83,2.74-2.36,2.86-.68-.17.82-1.51.77-2.86.68.26,1.74,4.07,3.92,0,4.85-1.12-.14-.77-1.28-1-2.08-8.43-.54-12.7-4.09-22.78-3.45-2.91-.64-3-3.34-6.63-3.44-.45,2-3,2.44-5.72,2.75a3.63,3.63,0,0,0-.92-3.45c-3.67.16-3.67,2.92-7.6,2.77-3.61.53-4.54-.85-7.61-.68-1.06.16-.63,1.36-1.9,1.36-.93,0-.77-.84-.93-1.36-2.27.22-3.6,1.08-6.69.68-7.57-3.44-22.2-1.79-30.35-4.83-7.11,2.25-16.32,2.89-20.91,3.45-2.16,2.67,1.72,2.72,2.82,4.83,3.63-.33,5.94.28,6.67,2.08-3.85-1-3.41,1.22-4.77,2.06-1.73-.61-2.57-1.79-4.72-2.06-3.61,2.65-12.29,1.66-15.22,4.79,5.24-.11,7.1,2.21,7.61,5.55,5-1.32,8.82.18,13.31-.74-4.66,6.08-24.41,1.18-22.84,11.72,3.17,1.67,3.92,1.89,2.88,5.52,1.71.09,2-.85,3.76-.69.09,1.1-.44,2.62,1,2.75,1.35-2.19.44,2.82,2.87,2.07,1.17-2.69,5.41-3.3,8.53-1.37-4.1,2.31-5.59,6.49-10.41,8.26-4.36,1-5.85,4-11.39,4.12.76,2.21-1.52,2.13-1.92,3.45,4.35.39,5.92-1.22,10.44-.68,1.06-2,4-2.57,7.62-2.77,3.57-4.74,9.74-7.6,15.19-11h1.92c1-.65.28-2.52,2.82-2.07.07-.41.16-.81.93-.67,0,.41-.11.81-.93.67.4,3.08-2.55,3.65-3.8,5.52,7.81.62,9.7-3,16.16-3.45.43-3.09-.5-5.18-1-7.59,4.36.65,4.6-1.71,8.5-1.38a23.85,23.85,0,0,1,6.69,4.84c6,1.39,11.2,3.38,10.44,9.64,4.59-.45.21-3.82,3.83-4.14.22,5.83-.3,12.12,2.8,15.85-2.86,1.79-1,2.55,0,4.83,0,1.35-2.58.85-1.85,2.76-.46,7.55-1.08,12.61,0,20,2.52,1.14,4.19,2.93,6.62,4.14,2.62,2.66,2.43,7.39,5.69,9.63-1.1.13-.8,1.26-1,2.07,4,1,4.88,4.26,6.69,6.89,2.89-.52,2.74,1.21,5.63.67.14-2.93-1.83-2.29-1.85-6.16-.54,0-1.08-.59,0-.71v.71c2-.36,1.77,1,1.85,2a29.91,29.91,0,0,1,7.64,5.52c-.69,4.85,1.83,7.4,3.77,10.34,7.85,1.41,12.46,4.94,21.86,3.41a25.94,25.94,0,0,0,3.82,4.84c3.58-.53,4.55.84,7.56.69.9,1.66,2.79,2.58,4.75,3.44v2.07C-170.55-152.88-169.43-149.31-164.61-148.45Zm58-94.35c.47.36-.69.86-1,.68-.5-.36.67-.9,1-.68Zm-73.16-53.74c2.92.67-1,1.86-1,2.76-2.89-.66.44-2.32,1-2.76Zm-3.79,3.45c3-.32,3.36,1.27,6.65.71,0,2.73-3.72,2.82-6.65,3.42ZM-213-291.68c-.51-.38.63-.91.91-.7.45.35-.7.86-1,.7Zm-20,99.14a.47.47,0,0,1,.52-.39.47.47,0,0,1,.39.39c-.15.8-.91.4-.91,0Zm.91,1.38c2.26.24,2.16,2.15,3.81,2.76-1.23,1.74-4.62-.74-3.81-2.76Z" transform="translate(328.83 328.9)"/></g></svg>