<svg id="图层_1" data-name="图层 1" xmlns="http://www.w3.org/2000/svg" viewBox="0 0 24 24"><defs><style>.cls-1{fill:#ffd29a;}.cls-2{fill:#fff;}</style></defs><title>icon1</title><circle class="cls-1" cx="12" cy="12" r="12"/><path class="cls-2" d="M17.58,9.09v1.08h1.07L17.58,9.09ZM19.15,11h0V15.2a.39.39,0,1,1-.79,0V11H12.9v1.22a.66.66,0,0,1-.66.65H11v3.92h0v2.29h2.79a.66.66,0,1,1,0,1.31H5a.66.66,0,0,1,0-1.31H7.82V16.77h0V11H4.39A.39.39,0,0,1,4,10.56H4V8.14a.39.39,0,0,1,.13-.29L7.9,3.78h0a.39.39,0,0,1,.31-.15.4.4,0,0,1,.19,0l8.92,4.1h.15l2.41,2.41a.39.39,0,0,1-.28.67ZM11.42,8.53h0l1.24,1.24V8.53Zm-1.18,4.29H8.61V14h1.63V12.83Zm-.15-3.77h-1v2.46h2.46v-1l-1.5-1.5Zm-1.48,10h1.63V17.16H8.61v1.91Zm0-11.32H9.95L8.61,5.46V7.75Zm6.79,0h0L9.18,4.89l1.67,2.86ZM7.82,5h0L5.29,7.75H7.82V5Zm7.25,5.15h0V8.53H13.44v1.63Zm.79-1.63h0v1.63h.93V8.53Zm-8,0H6.7v1.63H7.82V8.53Zm-1.91,0H4.79v1.63H5.91V8.53Zm2.69,7.83h1.63V14.74H8.61v1.63Z"/></svg>