<svg id="图层_1" data-name="图层 1" xmlns="http://www.w3.org/2000/svg" viewBox="0 0 24 24"><defs><style>.cls-1{fill:#9fedff;}.cls-2{fill:#fff;}</style></defs><title>icon3</title><circle class="cls-1" cx="12" cy="12" r="12"/><path class="cls-2" d="M4.64,4H9.71a.64.64,0,0,1,.64.65h0v9h9a.65.65,0,0,1,.64.65v5.07a.65.65,0,0,1-.64.65H4.64A.64.64,0,0,1,4,19.36V4.64A.64.64,0,0,1,4.64,4Zm2.59,9.45h0a.39.39,0,1,1,0-.78H9.07v-.82H8a.39.39,0,0,1,0-.78h1v-.82H7.23a.39.39,0,1,1,0-.78H9.07V8.64H8a.39.39,0,0,1-.38-.39A.37.37,0,0,1,8,7.87h1V7H7.23a.39.39,0,0,1-.39-.39.39.39,0,0,1,.39-.38H9.07v-1H5.28V18.71H18.71V14.93h-1v1.84a.39.39,0,1,1-.77,0V14.93h-.83v1a.39.39,0,0,1-.39.39.38.38,0,0,1-.38-.39v-1h-.84v1.84a.38.38,0,0,1-.38.39.39.39,0,0,1-.39-.39V14.93h-.82v1a.39.39,0,0,1-.78,0v-1h-.83v1.84a.38.38,0,0,1-.38.39.39.39,0,0,1-.39-.39V14.93H9.71a.64.64,0,0,1-.65-.65v-.84Z"/></svg>