<svg id="图层_1" data-name="图层 1" xmlns="http://www.w3.org/2000/svg" viewBox="0 0 60.16 60.01"><defs><style>.cls-1{fill:#9dd2ea;}.cls-2{fill:#231f20;}.cls-3{fill:#e0995e;}.cls-4{fill:#c75c5c;}.cls-5{fill:#e0e0d1;}.cls-6{fill:#fff;}.cls-7{fill:#4f5d73;}.cls-8{fill:#76c2af;}</style></defs><title>书</title><path class="cls-1" d="M69.94,100.61a30,30,0,0,0,60,0h0a30,30,0,1,0-60,0Z" transform="translate(-69.94 -70.61)"/><path class="cls-2" d="M130.09,125.17a3,3,0,0,1-3,3h-54a3,3,0,1,1,0-6h54A3,3,0,0,1,130.09,125.17Z" transform="translate(-69.94 -70.61)"/><path class="cls-3" d="M130.09,122.17a3,3,0,0,1-3,3h-54a3,3,0,1,1,0-6h54A3,3,0,0,1,130.09,122.17Z" transform="translate(-69.94 -70.61)"/><path class="cls-4" d="M86.59,83.17h-6a4.5,4.5,0,0,0-4.5,4.5v31.5h15V87.67A4.5,4.5,0,0,0,86.59,83.17Z" transform="translate(-69.94 -70.61)"/><path class="cls-5" d="M119.59,77.17h-6a4.5,4.5,0,0,0-4.5,4.5v37.5h15V81.67a4.5,4.5,0,0,0-4.5-4.5Z" transform="translate(-69.94 -70.61)"/><path class="cls-3" d="M76.09,89.17h15v4.5h-15Zm0,19.5h15v4.5h-15Z" transform="translate(-69.94 -70.61)"/><path class="cls-6" d="M109.09,108.67h15v4.5h-15Zm0-25.5h15v4.5h-15Z" transform="translate(-69.94 -70.61)"/><path class="cls-2" d="M112.09,113.17V77.44a4.49,4.49,0,0,0-3,4.22v37.5h3Zm-21,0V87.67a4.49,4.49,0,0,0-3-4.22v35.72h3Z" transform="translate(-69.94 -70.61)"/><path class="cls-7" d="M104.59,71.17h-9a4.5,4.5,0,0,0-4.5,4.5v43.5h18V75.67a4.5,4.5,0,0,0-4.5-4.5Z" transform="translate(-69.94 -70.61)"/><path class="cls-8" d="M91.09,77.17h18v4.5h-18Z" transform="translate(-69.94 -70.61)"/><path class="cls-8" d="M91.09,108.67h18v4.5h-18Z" transform="translate(-69.94 -70.61)"/></svg>