<svg id="图层_1" data-name="图层 1" xmlns="http://www.w3.org/2000/svg" viewBox="0 0 60 60"><defs><style>.cls-1{fill:#e0e0d1;}.cls-2{fill:#231f20;}.cls-3{fill:#4f5d73;}.cls-4{fill:#c75c5c;}.cls-5{fill:#f5cf87;}</style></defs><title>公文包02</title><path class="cls-1" d="M70.27,100a30,30,0,1,0,30-30A30,30,0,0,0,70.27,100Z" transform="translate(-70.27 -69.98)"/><path class="cls-2" d="M127.77,117.13a5.5,5.5,0,0,1-5.5,5.5h-44a5.5,5.5,0,0,1-5.5-5.5V92.38a5.5,5.5,0,0,1,5.5-5.5h44a5.5,5.5,0,0,1,5.5,5.5v24.75Z" transform="translate(-70.27 -69.98)"/><path class="cls-3" d="M108.52,80v27.5H92V80h16.5m0-5.5H92a5.5,5.5,0,0,0-5.5,5.5v27.5A5.5,5.5,0,0,0,92,113h16.5a5.5,5.5,0,0,0,5.5-5.5V80A5.5,5.5,0,0,0,108.52,74.51Z" transform="translate(-70.27 -69.98)"/><path class="cls-4" d="M72.77,96.51v17.88a5.5,5.5,0,0,0,5.5,5.5h44a5.5,5.5,0,0,0,5.5-5.5V96.51Z" transform="translate(-70.27 -69.98)"/><path class="cls-5" d="M105.77,95.13v4.12h-11V95.13h11m0-5.5h-11a5.5,5.5,0,0,0-5.5,5.5v4.12a5.5,5.5,0,0,0,5.5,5.5h11a5.5,5.5,0,0,0,5.5-5.5V95.13A5.5,5.5,0,0,0,105.77,89.63Z" transform="translate(-70.27 -69.98)"/><path class="cls-2" d="M127.77,92.38a5.5,5.5,0,0,0-5.5-5.5h-44a5.5,5.5,0,0,0-5.5,5.5v6.88h55Z" transform="translate(-70.27 -69.98)"/><path class="cls-4" d="M127.77,89.63a5.5,5.5,0,0,0-5.5-5.5h-44a5.5,5.5,0,0,0-5.5,5.5v6.88h55Z" transform="translate(-70.27 -69.98)"/></svg>