<svg id="图层_1" data-name="图层 1" xmlns="http://www.w3.org/2000/svg" viewBox="0 0 60 60.01"><defs><style>.cls-1{fill:#9dd2ea;}.cls-2{fill:#231f20;}.cls-3{fill:#e0995e;}.cls-4{fill:#c75c5c;}.cls-5{fill:#e0e0d1;}.cls-6{fill:#fff;}.cls-7{fill:#4f5d73;}.cls-8{fill:#76c2af;}</style></defs><title>书svg</title><path class="cls-1" d="M69.94,100.61a30,30,0,0,0,60,0h0a30,30,0,1,0-60,0Z" transform="translate(-69.94 -70.61)"/><path class="cls-2" d="M118.84,115.61a1.88,1.88,0,0,1-1.87,1.87H83.22a1.87,1.87,0,1,1,0-3.75H117A1.88,1.88,0,0,1,118.84,115.61Z" transform="translate(-69.94 -70.61)"/><path class="cls-3" d="M118.84,113.73a1.88,1.88,0,0,1-1.87,1.87H83.22a1.87,1.87,0,1,1,0-3.75H117A1.88,1.88,0,0,1,118.84,113.73Z" transform="translate(-69.94 -70.61)"/><path class="cls-4" d="M91.65,89.36H87.9a2.81,2.81,0,0,0-2.81,2.81v19.69h9.37V92.17A2.81,2.81,0,0,0,91.65,89.36Z" transform="translate(-69.94 -70.61)"/><path class="cls-5" d="M112.28,85.61h-3.75a2.81,2.81,0,0,0-2.81,2.81v23.44h9.37V88.42a2.81,2.81,0,0,0-2.81-2.81Z" transform="translate(-69.94 -70.61)"/><path class="cls-3" d="M85.09,93.11h9.37v2.81H85.09Zm0,12.19h9.37v2.81H85.09Z" transform="translate(-69.94 -70.61)"/><path class="cls-6" d="M105.72,105.29h9.37v2.81h-9.37Zm0-15.94h9.37v2.81h-9.37Z" transform="translate(-69.94 -70.61)"/><path class="cls-2" d="M107.59,108.11V85.78a2.8,2.8,0,0,0-1.87,2.64v23.44h1.87Zm-13.12,0V92.17a2.8,2.8,0,0,0-1.87-2.64v22.33h1.87Z" transform="translate(-69.94 -70.61)"/><path class="cls-7" d="M102.9,81.86H97.28a2.81,2.81,0,0,0-2.81,2.81v27.19h11.25V84.67a2.81,2.81,0,0,0-2.81-2.81Z" transform="translate(-69.94 -70.61)"/><path class="cls-8" d="M94.47,85.61h11.25v2.81H94.47Z" transform="translate(-69.94 -70.61)"/><path class="cls-8" d="M94.47,105.29h11.25v2.81H94.47Z" transform="translate(-69.94 -70.61)"/></svg>