<svg id="图层_1" data-name="图层 1" xmlns="http://www.w3.org/2000/svg" viewBox="0 0 24 24"><defs><style>.cls-1{fill:#fff;}</style></defs><title>exit</title><path class="cls-1" d="M11.58.06a12,12,0,0,1,8.49,3.52h0a12,12,0,0,1,0,17h0a12,12,0,0,1-17,0l-.05-.05A12,12,0,0,1,3.11,3.58l0,0A12,12,0,0,1,11.58.06Zm1.48,7.38h0a4.7,4.7,0,0,1,2.35,1.73,4.63,4.63,0,0,1,.9,2.75,4.69,4.69,0,0,1-1.38,3.35h0a4.74,4.74,0,0,1-6.68,0h0a4.72,4.72,0,0,1-.5-6.1A4.74,4.74,0,0,1,10.1,7.44a.56.56,0,0,0,.35-.69.57.57,0,0,0-.7-.36,5.93,5.93,0,0,0-2.9,2.13,5.78,5.78,0,0,0-1.1,3.41,5.86,5.86,0,0,0,1.7,4.14h0a5.83,5.83,0,0,0,8.23,0h0a5.84,5.84,0,0,0-2.31-9.67.56.56,0,0,0-.69.36.56.56,0,0,0,.35.69ZM11,5.37h0v6.69a.56.56,0,0,0,.56.56.56.56,0,0,0,.55-.56V5.37a.55.55,0,0,0-.55-.56.56.56,0,0,0-.56.56Zm7.74-.48h0a10.15,10.15,0,0,0-14.32,0l0,0a10.15,10.15,0,0,0,0,14.32l0,0a10.15,10.15,0,0,0,14.36,0h0a10.15,10.15,0,0,0,0-14.36Z" transform="translate(0.42 -0.06)"/></svg>