<?xml version="1.0" standalone="no"?><!DOCTYPE svg PUBLIC "-//W3C//DTD SVG 1.1//EN" "http://www.w3.org/Graphics/SVG/1.1/DTD/svg11.dtd"><svg class="icon" width="200px" height="200.00px" viewBox="0 0 1024 1024" version="1.1" xmlns="http://www.w3.org/2000/svg"><path d="M160 864l704 0L864 160 160 160 160 864zM256 256l512 0 0 512L256 768 256 256zM48 288C74.528 288 96 266.496 96 240L96 96l144 0C266.528 96 288 74.496 288 48S266.528 0 240 0l-192 0C21.472 0 0 21.504 0 48l0 192C0 266.496 21.472 288 48 288zM240 928 96 928l0-144C96 757.504 74.528 736 48 736S0 757.504 0 784l0 192C0 1002.496 21.472 1024 48 1024l192 0C266.528 1024 288 1002.496 288 976S266.528 928 240 928zM976 0l-192 0C757.504 0 736 21.504 736 48S757.504 96 784 96L928 96l0 144C928 266.496 949.504 288 976 288S1024 266.496 1024 240l0-192C1024 21.504 1002.496 0 976 0zM976 736c-26.496 0-48 21.504-48 48L928 928l-144 0c-26.496 0-48 21.504-48 48s21.504 48 48 48l192 0c26.496 0 48-21.504 48-48l0-192C1024 757.504 1002.496 736 976 736z" fill="#009BEF" /></svg>