<svg id="图层_1" data-name="图层 1" xmlns="http://www.w3.org/2000/svg" viewBox="0 0 209.26 139.51"><defs><style>.cls-1{fill:#db1f15;}.cls-2{fill:#ffe200;}</style></defs><title>中国</title><rect class="cls-1" width="209.26" height="139.51"/><polygon class="cls-2" points="34.88 13.95 28.41 33.85 38.36 37.09 34.88 13.95"/><polygon class="cls-2" points="34.88 13.95 41.34 33.85 31.39 37.09 34.88 13.95"/><polygon class="cls-2" points="54.78 28.41 33.85 28.41 33.85 38.87 54.78 28.41"/><polygon class="cls-2" points="54.78 28.41 37.85 40.71 31.7 32.25 54.78 28.41"/><polygon class="cls-2" points="14.97 28.41 31.9 40.71 38.05 32.25 14.97 28.41"/><polygon class="cls-2" points="14.97 28.41 35.9 28.41 35.9 38.87 14.97 28.41"/><polygon class="cls-2" points="47.18 51.81 40.71 31.91 30.76 35.14 47.18 51.81"/><polygon class="cls-2" points="47.18 51.81 30.25 39.51 36.4 31.04 47.18 51.81"/><polygon class="cls-2" points="22.58 51.81 39.51 39.51 33.36 31.04 22.58 51.81"/><polygon class="cls-2" points="22.58 51.81 29.04 31.91 38.99 35.14 22.58 51.81"/><polygon class="cls-2" points="63.77 17.54 70.57 15.97 69.79 12.58 63.77 17.54"/><polygon class="cls-2" points="63.77 17.54 68.35 12.28 70.98 14.57 63.77 17.54"/><polygon class="cls-2" points="64.49 9.37 68.08 15.35 71.07 13.56 64.49 9.37"/><polygon class="cls-2" points="64.49 9.37 70.91 12.1 69.55 15.31 64.49 9.37"/><polygon class="cls-2" points="71.32 20.75 71.93 13.8 68.46 13.49 71.32 20.75"/><polygon class="cls-2" points="71.32 20.75 67.73 14.77 70.72 12.97 71.32 20.75"/><polygon class="cls-2" points="72.48 7.53 67.9 12.79 70.53 15.08 72.48 7.53"/><polygon class="cls-2" points="72.48 7.53 71.87 14.48 68.4 14.17 72.48 7.53"/><polygon class="cls-2" points="76.7 14.56 70.28 11.83 68.92 15.04 76.7 14.56"/><polygon class="cls-2" points="76.7 14.56 69.9 16.13 69.12 12.73 76.7 14.56"/><polygon class="cls-2" points="76.8 28.89 83.67 30.08 84.27 26.65 76.8 28.89"/><polygon class="cls-2" points="76.8 28.89 83.06 25.82 84.6 28.95 76.8 28.89"/><polygon class="cls-2" points="80.63 21.64 81.62 28.55 85.07 28.05 80.63 21.64"/><polygon class="cls-2" points="80.63 21.64 85.49 26.65 82.98 29.07 80.63 21.64"/><polygon class="cls-2" points="82.51 34.77 85.77 28.61 82.69 26.98 82.51 34.77"/><polygon class="cls-2" points="82.51 34.77 81.52 27.87 84.97 27.38 82.51 34.77"/><polygon class="cls-2" points="88.71 23.05 82.45 26.12 83.98 29.25 88.71 23.05"/><polygon class="cls-2" points="88.71 23.05 85.45 29.21 82.37 27.58 88.71 23.05"/><polygon class="cls-2" points="89.87 31.16 85.01 26.16 82.51 28.59 89.87 31.16"/><polygon class="cls-2" points="89.87 31.16 83 29.97 83.6 26.53 89.87 31.16"/><polygon class="cls-2" points="77 46.91 82.78 50.81 84.73 47.91 77 46.91"/><polygon class="cls-2" points="77 46.91 83.97 46.66 84.09 50.15 77 46.91"/><polygon class="cls-2" points="83.45 41.86 81.54 48.56 84.89 49.52 83.45 41.86"/><polygon class="cls-2" points="83.45 41.86 85.85 48.41 82.57 49.6 83.45 41.86"/><polygon class="cls-2" points="79.81 54.62 85.3 50.31 83.15 47.57 79.81 54.62"/><polygon class="cls-2" points="79.81 54.62 81.73 47.91 85.08 48.87 79.81 54.62"/><polygon class="cls-2" points="90.26 46.44 83.29 46.69 83.41 50.17 90.26 46.44"/><polygon class="cls-2" points="90.26 46.44 84.77 50.74 82.61 47.99 90.26 46.44"/><polygon class="cls-2" points="88 54.32 85.61 47.77 82.34 48.96 88 54.32"/><polygon class="cls-2" points="88 54.32 82.22 50.43 84.17 47.53 88 54.32"/><polygon class="cls-2" points="64.31 58.42 68.14 64.25 71.06 62.33 64.31 58.42"/><polygon class="cls-2" points="64.31 58.42 70.83 60.88 69.6 64.15 64.31 58.42"/><polygon class="cls-2" points="72.22 56.25 67.86 61.7 70.58 63.88 72.22 56.25"/><polygon class="cls-2" points="72.22 56.25 71.89 63.22 68.41 63.06 72.22 56.25"/><polygon class="cls-2" points="63.93 66.61 70.65 64.77 69.73 61.4 63.93 66.61"/><polygon class="cls-2" points="63.93 66.61 68.28 61.17 71.01 63.34 63.93 66.61"/><polygon class="cls-2" points="64.18 58.26 67.85 64.18 70.81 62.35 64.18 58.26"/><polygon class="cls-2" points="64.18 58.26 70.64 60.89 69.31 64.12 64.18 58.26"/><polygon class="cls-2" points="72.14 56.3 67.64 61.63 70.3 63.88 72.14 56.3"/><polygon class="cls-2" points="72.14 56.3 71.63 63.26 68.15 63 72.14 56.3"/><polygon class="cls-2" points="76.46 63.27 70 60.63 68.68 63.86 76.46 63.27"/><polygon class="cls-2" points="76.46 63.27 69.69 64.93 68.86 61.55 76.46 63.27"/><polygon class="cls-2" points="71.17 69.53 71.68 62.58 68.2 62.32 71.17 69.53"/><polygon class="cls-2" points="71.17 69.53 67.49 63.6 70.45 61.77 71.17 69.53"/></svg>