<svg xmlns="http://www.w3.org/2000/svg" viewBox="0 0 194.6 194.19"><defs><style>.cls-1,.cls-2{fill:#fff;}.cls-1{fill-rule:evenodd;}</style></defs><title>国家电网LOGO</title><g id="Page_1" data-name="Page 1"><g id="图层_1-2" data-name="图层 1"><path class="cls-1" d="M-20.76,150.52-22,148.08l8.55-7.33h0c.81-.81,1.22-1.22,1.22-2l1.63-.82,2,5.7-1.63.81V144c0-.41-.41-.41-.41-.81h-.81a.4.4,0,0,1-.41.41h0l-1.63,1.22,1.22,3.66h2l.41-.41h0c.41,0,.81,0,.81-.41s0-.41-.41-1.22l1.63-.41,2,4.89-1.63.41c-.41-.81-1.22-1.22-2.85-.81H-20.76Zm2.44-2h4.48L-15.06,146Zm4.07,17.5v-1.22c.41-.41,1.22-.41,2-.81l5.29-1.63c1.22,0,1.63-.41,2,0a.88.88,0,0,1,.81.81l1.63-.41-1.22-4.48-1.63.41v1.22a2.39,2.39,0,0,1-2,.81l-6.51,1.63,9-8.14-.41-2.44-9.36,2.44a7.17,7.17,0,0,1-2.44.41,1.42,1.42,0,0,1-.41-.81l-2,.41,1.63,4.48,1.22-.41c0-.81,0-1.22.41-1.22,0-.41.81-.81,2-.81l3.66-1.22-6.92,6.51,1.63,4.89Zm-168.14,22.39c.41.41,0,.81,0,1.22a17.63,17.63,0,0,1-2,.41l-5.7.41a1.82,1.82,0,0,1-2,0c-.41,0-.41-.41-.41-.82h-1.63l1.22,10.59,4.89,1.22.41-1.22a7.3,7.3,0,0,1-2.85-2,8.52,8.52,0,0,1-1.63-2.44c0-.81,0-1.22.41-1.22,0-.41.81-.41,1.22-.41l3.26-.41.41.41c0,.41-.41.81-.41,1.22a3.11,3.11,0,0,1-2,.81l.41,1.22,6.11-.81V195.3h-2c0-.41-.41-.81-.41-1.22v-.81h2c.41-.41,1.22-.41,1.22,0,.41,0,.41.41.41,1.22a2.69,2.69,0,0,1-.41,2.44,10.81,10.81,0,0,1-2,2.44l.81,1.22,4.07-2.44L-180.35,188Zm-2-13.84-.41,1.22a4.06,4.06,0,0,1,2,1.63,3.05,3.05,0,0,1,.41,2h0l-7.73-.41c-1.22,0-1.63,0-2-.41-.41,0-.41-.41-.41-.81l-1.63-.41-.41,6.51H-193a1.78,1.78,0,0,1,.41-1.22,14.38,14.38,0,0,1,2.44-.41l7.73.41v.41c0,.81-.41,1.22-.81,2a6.62,6.62,0,0,1-2.44,1.22l.41,1.22,4.48-1.22.41-10.18Zm5.29-5.29-.41,2.85-11,1.63h0c-1.22,0-2,.41-2,1.22l-2-.41,1.22-6.11,1.63.41v1.22c.41,0,.41.41.81.41h.41l2-.41.81-3.66-1.63-.81h-.41a.56.56,0,0,0-.81,0c-.41,0-.41.41-.41.81h-2l1.22-5.29,1.63.41a2.94,2.94,0,0,0,1.63,2.44h.41Zm-3.26.41-3.66-2.44-.41,2.85Zm3.66-16.69-.81.81a8.54,8.54,0,0,1,1.63,2.44,4.42,4.42,0,0,1-.41,2h0l-7.33-2.44c-.81-.41-1.63-.41-1.63-.81a1.49,1.49,0,0,1-.41-1.22l-1.63-.81-2,6.11,1.63.41.81-.81a7.16,7.16,0,0,1,2.44.41l7.33,2.44h0a4.06,4.06,0,0,1-1.63,2,14.36,14.36,0,0,1-2.44.41v1.63h4.48l3.66-9.77Zm4.07-2,2.44-2.44a5.06,5.06,0,0,0,0-3.26,4.16,4.16,0,0,0-2-2.44,4.49,4.49,0,0,0-2-.41h-1.63c0,.41-.5.5-.81.81a6,6,0,0,1-1.63,1.63.4.4,0,0,1-.41.41c-1.22,1.63-2,2-2.85,1.63a.88.88,0,0,1-.81-.81c-.41-.81,0-1.22,0-2a4.07,4.07,0,0,1,2-1.63,11.91,11.91,0,0,1,3.66-.81v-1.22l-5.29-1.22-.41,1.22.81.41a5.6,5.6,0,0,0-1.63,1.22,2.12,2.12,0,0,0-.81,1.63,4.29,4.29,0,0,0-.41,3.66,5.4,5.4,0,0,0,2.44,2.85,7.93,7.93,0,0,0,2.85.41,13,13,0,0,0,2.85-2.44.4.4,0,0,0,.41-.41c1.63-1.63,2.44-2.44,3.26-2,.41,0,.41.41.41.82.41.41,0,.81,0,1.63-.41.41-.91,1.32-1.63,1.63a7.29,7.29,0,0,1-2.85.41v1.22l4.07,1.22.81-1.22-.81-.41Zm138.42-34.6,1.22,1.63,4.07,4.07,1.63,1.63-1.63,1.22-2.44,2.44-1.22,1.22-1.63-1.63-4.07-4.48-1.22-1.22L-40.3,120l2.85-2.44Zm2.85-4.48,2-1.63,1.63,2,7.74,8.14,1.63,1.63L-22,123.65l-9.77,9-.81.81h-1.22a30.11,30.11,0,0,1-2.44-2c0-.41.41-.41.41-.81.41,0,.41-.41.81-.81v-.81l1.22,1.22c.41.41.41.41.81.41a.4.4,0,0,0,.41-.41l9-8.14-7.73-8.14ZM-26.06,122l-1.63,1.63L-29.31,122l-5.7-6.11-1.63-1.63,1.63-1.63,1.63,1.63,5.7,6.11Zm-8.55,3.26,2-2-3.66-3.66-2,2ZM-50.48,97.19a17,17,0,0,1-.81,2.44v1.63a2.59,2.59,0,0,0,0,2.44,10.35,10.35,0,0,0,.81,2.85,10.19,10.19,0,0,0,1.63,2.85,7,7,0,0,1,1.63-1.22c.41,0,.41,0,.81-.41l-1.22-1.22a1.42,1.42,0,0,1-.41-.81,4.92,4.92,0,0,1-.81-1.63,6.39,6.39,0,0,1-.41-2.44,3.08,3.08,0,0,0,.41-1.63,1.26,1.26,0,0,0,.41-.81c0-.41.41-.41.41-.81l-2.44-1.22Zm-12.62,9h-1.63V107a5.46,5.46,0,0,1-.41,2c.81,0,1.22.41,2,.41A16.78,16.78,0,0,0-59.44,111a35.18,35.18,0,0,1,4.89,2c0,.81.41,1.22,0,1.63v.81l.81-.41a7.14,7.14,0,0,0,2-.41,60.73,60.73,0,0,0-.81-6.92H-55V109c.41.41.41.81.41,2-2-1.22-4.48-2-6.51-3.26a5.78,5.78,0,0,1,2.44-.81l4.07-2a1.26,1.26,0,0,0,.81-.41,8.49,8.49,0,0,1-1.63-2.44l-.41.41a5,5,0,0,1-1.22.81l-2.44,1.22a3.11,3.11,0,0,1-2,.81c-.41.41-1.22.41-1.63.81Zm.41-4.48a14.5,14.5,0,0,0,3.66-.81,20.08,20.08,0,0,0,3.26-1.22,22.69,22.69,0,0,1,3.26-2,4.06,4.06,0,0,1-1.63-2l-.41.41a17.63,17.63,0,0,1-2.85,1.63,27.7,27.7,0,0,1-3.26,1.22,6.91,6.91,0,0,1-2.85.41l.41.41a17.61,17.61,0,0,1,.41,2Zm-29.72.81L-92,100l2-11.81.41-2.44,2.44.41,11,2,2.44.41-.41,2-2,12.62c0,.41,0,.81-.41.81,0,.41-.41.81-1.22.81H-80.2v-.81a1.49,1.49,0,0,0-.41-1.22v-.81c.41,0,.81.41,1.22.41h.81c0-.41,0-.41.41-.81l1.63-11.4-11-1.63-.41,2.44h.41c.41,0,.81-.41,1.22-.41a2.11,2.11,0,0,1,.81,1.63,1.5,1.5,0,0,0,.41-1.22,1.26,1.26,0,0,1,.41-.81v-.81a4.37,4.37,0,0,0,2.44.81c0,.41-.41.41-.41.81v.41l-.41,1.22c.41-.41,1.22-.41,1.22-.81h.41c.41.41.81.81.81,1.22a4.42,4.42,0,0,0,.41-2l.41-.41c.81.41,1.63.41,2.44.81a.4.4,0,0,0-.41.41l-.41,1.22c0,.81-.41,1.22-.41,1.63L-79.39,96a24.26,24.26,0,0,1,1.22,2.85v.41c-.41.41-1.22.81-2,1.63V99.63l-.41-1.22a14.72,14.72,0,0,1-1.63,2c-.41.41-.81.81-1.22.81l-.41-.41c-.41-.41-.81-.41-1.22-1.22a5.63,5.63,0,0,0,1.63-1.22,5.62,5.62,0,0,1,1.22-1.63l.41-.81c0-.81-.41-1.22-.41-1.63s-.41-.81-.81-1.63c-.41.81-.81,1.22-.81,1.63l-.41.41c.41.81.81,2,1.22,2.85l-2.44,1.22V97.19c-.41.41-.41.81-.81.81,0,.41-.81.81-1.63,1.63a.4.4,0,0,0-.41-.41c0-.41-.41-.81-.81-1.22l-.41,2.44-.41,2.44Zm3.26-4.89q1.22-.61,1.22-1.22a5.6,5.6,0,0,0,1.22-1.63,16,16,0,0,1-.81-2.44l-.41-.81Zm-22-.41,4.07-.82-.41-2-4.07.81Zm-.81-4.07,4.48-.81-.41-2.44-4.48.81Zm-5.29,5.29,3.66-.81-.41-2-3.66.41Zm-4.07-8.55,2-.41,4.07-.41V87.82l-.41-1.63,2.44-.41.41,1.63v1.22l5.29-.81,1.63-.41V89l1.22,7.74.41,2-2.44.41v-.41l-4.07.41.41,2v.41c0,.41.41.41.81.41l2.44-.41a4.22,4.22,0,0,0,1.63-.41c.41,0,.81-.41,1.22-.41v-2a10.32,10.32,0,0,0,2.85.82c-.41,1.22-.41,2.44-.81,2.44a.88.88,0,0,1-.81.81c0,.41-.41.41-1.22.41-.41.41-1.63.41-2.85.41a8,8,0,0,1-2.85.41c-.81.41-1.22.41-1.63,0a1.42,1.42,0,0,1-.81-.41c0-.41-.41-.81-.41-1.22l-.41-2.85-3.66.81h0l-2.44.41-.41-1.63-1.22-7.74Zm3.26,4.07,3.66-.41-.41-2.44-3.66.81Zm-28.5,11-.41-1.22-.41-1.22,11-5.7.81,1.22.41.81,2.44-1.22-.81-.81-.81-2-.81-1.22-1.63,1.22-5.29,2.44a.4.4,0,0,0,.41-.41c-.41-.41-1.22-.41-2.44-.81-.41.81-.81,1.22-.81,1.63l-.41.41c.41,0,.81.41,1.22.41l-4.48,2.44-2,.81.41,1.22,1.22,2,.41.82Zm6.11,5.29c-.81,1.63-2.44,2.85-4.07,4.48l.81.41c.41,0,.81.41,1.22.82l2-2c.41-.81,1.22-1.63,1.63-2.44a23.27,23.27,0,0,0,1.63-2.85l.41.41v.81c.41.41.41.81,0,.81,0,.41-.41.81-1.63,1.22l.81.41q.61,0,1.22,1.22c1.22-.81,2-1.22,2.44-2v-1.63c-.41-.41-.41-.81-.81-1.63a5.86,5.86,0,0,1-.81-1.22c0-.41-.41-.41-.41-.81l.41-.81c.81.81,1.22,1.63,2,2s1.22.81,2,.81a26.24,26.24,0,0,0,3.66.81v-1.63a1.5,1.5,0,0,0,.41-1.22h-3.26l-2.44-1.22-1.22-1.22,1.22-2.44a4,4,0,0,0-1.63-.41,1.42,1.42,0,0,1-.81-.41l-.41,1.22a22.72,22.72,0,0,0-1.63,3.26l-.41-.41c-.41,0-.81-.41-1.63-.41a8.85,8.85,0,0,0,1.22-2h-.81l2.44-1.22,1.63-.81-.81-2-1.63.81-7.33,4.07-1.63.41,1.22,2,1.22-.81,2.44-1.22a23.15,23.15,0,0,1-2.85,3.26c-.81.41-1.63,1.22-2,1.22a5.06,5.06,0,0,1,1.22.81l.81.81,3.66-3.66h0l-1.22,2.44-1.63,1.63c-.31.31-1.22.81-1.63,1.22a5.07,5.07,0,0,1,1.22.81l.81.81a13.32,13.32,0,0,0,2.44-3.26,17.2,17.2,0,0,0,2-2.85l.41.41a37.59,37.59,0,0,1-2,3.26Zm-21.17,20.36,8.14-8.55-9.36-9-8.14,8.55ZM-174.24,122l1.22-1.63,9-9,1.22-1.63,1.63,1.63,9.36,9,1.63,1.22-1.63,2v-.41l-8.55,8.55.41.41-1.63,1.63-1.63-1.63-9.77-9Zm10.18,6.11,1.63-1.22,1.63-2-2-1.63-1.22,1.22-1.22,1.22-1.63-1.22,1.22-1.22,1.63-1.63-1.63-1.22-1.63,1.63-1.22,1.63-1.63-1.63,1.22-1.22,5.29-5.29,1.22-1.22,1.63,1.22-1.22,1.22-2,2,1.63,1.22,1.63-1.63.81-1.22,1.63,1.63-1.22.81h2.44v1.63l1.22-1.22,1.22,1.22-1.22,1.22-5.29,5.7-1.22,1.22Zm6.11-6.51h-2.44a1.5,1.5,0,0,0,.41-1.22l-1.22.81,2,2ZM-13,172.91c-.41-.41,0-.81,0-1.22a17.62,17.62,0,0,1,2-.41l5.29-1.22h2c.41.41.81.41.81,1.22l1.63-.41L-2,164.77l-2,.41c.41.41,0,.81,0,1.22a17.68,17.68,0,0,1-2,.41L-11.4,168h-2c-.41-.41-.81-.41-.81-1.22l-1.63.41,1.22,6.11Zm.81,15.47c0-.81,0-1.22.41-1.22.41-.41.81-.41,2-.41l5.29-.41H-2c0,.41.41.81.41,1.22H0l-.41-6.11H-2a1.5,1.5,0,0,1-.41,1.22,8.31,8.31,0,0,1-2,.41H-6.92l-.41-4.48,2.44-.41c1.22,0,2,0,2,.41a.87.87,0,0,1,.81.81H-.41l-.41-6.11h-2c.41.81,0,1.22,0,1.22-.41.41-1.22.41-2.44.41l-5.29.41h-2c-.41-.41-.41-.41-.41-1.22h-2l.41,6.51,1.63-.41c0-.41.41-.82.81-1.22A7.39,7.39,0,0,1-9,178.61l.41,4.88h-1.63a3,3,0,0,1-2-.41c-.41,0-.41-.41-.41-.81h-1.63l.41,6.11Zm-1.63,2.44c0,.41-.41.81-.81,1.22v1.63a5.35,5.35,0,0,0,1.22,4.88,8.58,8.58,0,0,0,5.29,2,5.87,5.87,0,0,0,5.29-1.22,5.11,5.11,0,0,0,2.44-4.48,5.1,5.1,0,0,0-.41-3.66,7.53,7.53,0,0,0-3.26-2.85l-.81,1.22a10.37,10.37,0,0,1,2,2.44c.31.72.81,1.22.81,2a4.71,4.71,0,0,1-2,2.85,9.05,9.05,0,0,1-3.66.41,6.08,6.08,0,0,1-4.07-1.22A3.7,3.7,0,0,1-13,193.27c0-.81.41-1.22,1.22-2A6.56,6.56,0,0,1-9,189.6v-1.22l-5.29,1.22-.41.82.81.41Zm-5.29,25.65c.41-.41.41-.81.81-.81.41-.41,1.22,0,2,.41l5.29,1.63,1.63.81c.41.41.41.82.41,1.63l1.63.41,2-6.11L-6.92,214l-.81.81a4.42,4.42,0,0,1-2-.41l-2.44-.81.41-.41a.87.87,0,0,1,.81-.81,1.81,1.81,0,0,1,2,0l.41-1.22-6.51-2-.41.81c.81.41,1.63.82,1.63,1.22.41.41.41.81,0,1.63v.41l-2-.81c-.81,0-1.22-.41-1.22-.81v-1.22a4.07,4.07,0,0,1,1.63-2,3.7,3.7,0,0,1,2.85-1.22l-.41-1.22-4.07.41-3.66,9.77Zm-5.29,11a5,5,0,0,1,.41-5.29,8,8,0,0,1,3.66-3.66,7.35,7.35,0,0,1,5.7.82A7.28,7.28,0,0,1-10.59,223a7.94,7.94,0,0,1-.41,5.29,5.31,5.31,0,0,1-4.07,3.66,8.11,8.11,0,0,1-5.29-.41,9.76,9.76,0,0,1-4.07-4.07Zm4.07-6.11c-1.22,0-1.63.81-2.44,1.63-.41.81,0,1.63.41,2.85a10.87,10.87,0,0,0,3.26,2.44,10.08,10.08,0,0,0,4.07.81,2.23,2.23,0,0,0,2.44-1.63,2.57,2.57,0,0,0-.41-2.85c-.41-.81-1.63-1.63-3.26-2.44a8.06,8.06,0,0,0-4.07-.81ZM-37,242.53a1.5,1.5,0,0,1,1.22-.41c.41,0,.81.41,1.63,1.22l4.07,3.66c.81.81,1.22,1.22,1.22,1.63a1.49,1.49,0,0,1-.41,1.22l1.22,1.22,3.26-3.66-1.22-.81a1.5,1.5,0,0,1-1.22.41c-.41,0-.81-.41-1.63-1.22l-4.89-4.48L-22,244.15l1.63-1.63L-27.28,236c-.81-.81-1.22-1.22-1.22-1.63-.41-.41,0-.81.41-1.22l-1.22-.81-3.26,3.26,1.22,1.22c.41-.41.81-.81,1.22-.81a7.6,7.6,0,0,0,1.63,1.22l2.85,2.85-9-2.44-3.66,4.07Zm-9,8.14a5.93,5.93,0,0,1,2.44-4.89,6.42,6.42,0,0,1,5.29-1.22c1.63,0,3.26,1.22,4.89,2.85,1.22,1.63,2,3.26,1.63,5.29a5.76,5.76,0,0,1-2.44,4.48,8.58,8.58,0,0,1-5.29,1.63,8.64,8.64,0,0,1-4.89-3.26A7.83,7.83,0,0,1-46,250.67Zm6.51-3.67c-1.22-.41-2-.41-2.85.41a1.81,1.81,0,0,0-.81,2.44,7.31,7.31,0,0,0,1.63,3.66,17.84,17.84,0,0,0,3.26,2.85,3.35,3.35,0,0,0,2.85-.41,2.52,2.52,0,0,0,.81-2.85,6.62,6.62,0,0,0-1.63-3.66A8.53,8.53,0,0,0-39.49,247ZM-64.32,263.7h1.22c0-1.22,0-2,.41-2.44,0-.81.81-1.22,1.22-1.63h.41l3.66,6.51c.41,1.22.81,1.63.81,2-.41.41-.41.81-1.22,1.22l.81,1.22,5.7-2.85-.81-1.22h-1.22a5.65,5.65,0,0,1-1.22-1.63L-58.22,258h0a2.69,2.69,0,0,1,2.44-.41,6.29,6.29,0,0,1,2.44,1.22l.81-1.22-3.66-2.85-9,4.88Zm-7.33-2,2.85-.81,6.92,8.14h0a3.52,3.52,0,0,0,2.44,1.22l.41,1.63-5.7,2-.41-1.63h0a1.42,1.42,0,0,0,.81-.41V271h0c0-.41,0-.41-.41-.41L-66,269l-3.66,1.63.41,1.63v.41h0a1.43,1.43,0,0,0,.41.82h1.22l.81,1.22-4.88,2-.81-1.63c.81-.41,1.22-1.22,1.22-2.85h0Zm2,2.85v4.07l2.44-.81Zm-19.95.81,7.33-.81a6.81,6.81,0,0,1,4.07,0,4.12,4.12,0,0,1,1.63,2.85,2.69,2.69,0,0,1-.41,2.44,4.41,4.41,0,0,1-2,1.63l3.26,2.85c.41.41.81.82,1.22.82s.81.41,1.22,0v1.63l-3.66.81-5.29-5.29-1.22.41.41,1.63a3.11,3.11,0,0,0,.81,2s.41.41,1.22,0v2l-6.11.81-.41-1.63c.81,0,1.22-.41,1.22-.81.41,0,.41-.81,0-2l-.81-5.29a3.11,3.11,0,0,0-.81-2s-.41-.41-1.22,0Zm6.11,5.29h.41a26.19,26.19,0,0,0,2.85-.81,3.68,3.68,0,0,0,.41-2c0-.41-.41-1.22-.81-1.22a4.4,4.4,0,0,0-2.44-.41,1.42,1.42,0,0,0-.81.41c-.41.41-.41.81,0,1.63ZM-101,267.77a6.74,6.74,0,0,1,4.88-2,6.49,6.49,0,0,1,4.89,1.63,7.74,7.74,0,0,1,2,5.29c0,2-.41,4.07-1.63,5.29a6.74,6.74,0,0,1-4.89,2,6.49,6.49,0,0,1-4.89-1.63c-1.63-1.22-2-3.26-2-5.29a6,6,0,0,1,1.63-5.29Zm7.33.81a3.52,3.52,0,0,0-2.44-1.22A2.23,2.23,0,0,0-98.52,269a10.23,10.23,0,0,0-.81,4.07,6.88,6.88,0,0,0,1.22,4.07,2.46,2.46,0,0,0,2.44,1.22,3,3,0,0,0,2.44-1.63,6.33,6.33,0,0,0,.41-4.07,12.06,12.06,0,0,0-.81-4.07ZM-114,264.51l6.92.81a4.23,4.23,0,0,1,3.26,1.63,3,3,0,0,1,.81,3.26,2.23,2.23,0,0,1-1.63,2.44c-.81.82-2,.82-3.26.82l-2.44-.41v3.67c0,.41.41.41,1.22.41l-.41,1.63-6.11-.41.41-2c.41.41.81,0,1.22,0a17.54,17.54,0,0,0,.41-2l.81-5.29v-2.44c-.41,0-.81-.41-1.22-.41Zm4.07,6.92h.41a2.29,2.29,0,0,0,2.44-.41c.41,0,.81-.82.81-1.63a2.23,2.23,0,0,0-.41-1.63,2.26,2.26,0,0,0-1.63-.81h-.81c-.41.41-.41.81-.41,1.63Zm-17.1-11,6.92,2a5,5,0,0,1,3.26,2c.81.81.81,1.63.81,2.85a2.87,2.87,0,0,1-1.63,2,3.44,3.44,0,0,1-2.44.81l1.63,4.07a1.5,1.5,0,0,0,.41,1.22c.41,0,.81.41,1.22.41l-.81,1.63-3.66-1.22-2-6.51-1.22-.41-.81,1.63c0,.81-.41,1.63,0,2,0,.41.41.41.81.81l-.41,1.63-6.11-2,.41-1.63c.81.41,1.22.41,1.63,0l.81-1.63,1.63-5.29c0-1.22.41-1.63,0-2a.88.88,0,0,0-.81-.81Zm2.85,6.92.41.41h.41q1.83.61,2.44,0c.81,0,1.22-.41,1.63-1.22a3,3,0,0,0-.41-1.63,6,6,0,0,0-1.63-1.22h-1.22c-.41.41-.81.81-.81,1.22Zm-14.25-10.18a6.09,6.09,0,0,1,5.29.41,5.31,5.31,0,0,1,3.66,4.07,6.42,6.42,0,0,1-.81,5.29,7.94,7.94,0,0,1-4.07,4.07,8.11,8.11,0,0,1-5.29-.41,11.56,11.56,0,0,1-3.66-4.07,9.36,9.36,0,0,1,.81-5.7c1.22-2,2.44-3.26,4.07-3.67Zm6.11,4.07a2.08,2.08,0,0,0-1.63-2c-.81-.81-1.63-.41-2.85,0a10.85,10.85,0,0,0-2.44,3.26,10.09,10.09,0,0,0-1.22,4.07,5.19,5.19,0,0,0,1.63,2.44,2.51,2.51,0,0,0,2.85-.41,5.33,5.33,0,0,0,2.44-3.26,9.1,9.1,0,0,0,1.22-4.07Zm-10.18-7.33c0-.81-.41-1.22-.41-1.63-.41-.41-.81-.82-1.22-.82a5.63,5.63,0,0,0-4.89-1.22c-2,0-3.26,1.22-4.88,2.85a9,9,0,0,0-1.63,5.29c0,1.63,1.22,3.26,2.44,4.48a6.57,6.57,0,0,0,3.66,1.22,5,5,0,0,0,4.07-.81l-.81-1.63a5.87,5.87,0,0,1-2.85.82,5.77,5.77,0,0,1-2.44-.82,3.69,3.69,0,0,1-1.22-2.85,7.32,7.32,0,0,1,1.63-3.66,8.54,8.54,0,0,1,3.26-2.44c1.22-.41,2-.41,2.85.41a2.24,2.24,0,0,1,1.22,2,9,9,0,0,1-.41,3.26l1.63.41,1.63-4.89-.81-.81-.81.81Zm-19.95-19.13,4.07,4.89a7.29,7.29,0,0,1,2,5.29,7.74,7.74,0,0,1-2.85,4.48,7.94,7.94,0,0,1-5.29,2,8.62,8.62,0,0,1-4.89-3.26l-3.66-4.88,1.22-.81a1.49,1.49,0,0,0,1.22.41l1.63-.81,4.07-3.66c1.22-.41,1.63-1.22,1.63-1.63a1.26,1.26,0,0,0-.41-.81ZM-167.32,245q-1.22.61-1.22,1.22a1.26,1.26,0,0,0,.41.81,5.17,5.17,0,0,0,2.85,1.63,14.49,14.49,0,0,0,3.66-1.63c1.63-1.22,2.44-2.44,2.44-3.26a3.16,3.16,0,0,0-.81-3.25c0-.41-.41-.41-.81-.41a3.15,3.15,0,0,0-1.22.41Zm-.81-15.06a1.49,1.49,0,0,1,.41,1.22l-1.63,1.63-4.48,3.26a6.89,6.89,0,0,1-2,.81l-.81-.81-1.63,1.22,3.66,4.89,1.63-.82a3.14,3.14,0,0,1-.41-1.22c0-.41.81-1.22,1.63-1.63l4.48-3.26c.81-.41,1.22-.81,1.63-.81s.81.41,1.22.81l1.22-1.22-3.66-4.89Zm-5.29-13s.12.08,3.26,6.51a10.17,10.17,0,0,1,1.22,3.66,2.58,2.58,0,0,1-2,2.44,2.7,2.7,0,0,1-2.44.41c-.81,0-1.22-.41-2-1.22l-2,4.07c0,.41-.41.81-.41,1.22a1.5,1.5,0,0,0,.41,1.22l-1.63.81-1.63-3.66,3.26-6.11-.81-1.22-1.22.81a4.34,4.34,0,0,0-2,1.22,1.5,1.5,0,0,0,.41,1.22l-1.63.81-2.85-5.29,1.22-.81c.41.41.81.81,1.22.81s.81-.41,2-.81l4.48-2.44c1.22-.81,1.63-1.22,2-1.22a3.08,3.08,0,0,0-.41-1.63Zm-3.26,7.33h.41v.41a4.8,4.8,0,0,0,2,2,1.24,1.24,0,0,0,1.63,0c.81-.41.81-.81,1.22-1.22a3.67,3.67,0,0,0-.41-2c-.41-.41-.81-.81-1.22-.81a3.16,3.16,0,0,0-1.22.41Zm1.22-10.58V212c0-.41-.41-.81-.41-1.22a6.48,6.48,0,0,0-3.66-3.66c-1.63-.81-3.26-.41-5.29,0a8.19,8.19,0,0,0-4.48,3.66,4.37,4.37,0,0,0-.41,4.48,2.11,2.11,0,0,0,.81,1.63c.41.41,1.22.81,1.63,1.22l-.81.81.81,2,3.26-1.63h1.63c.41,0,.41.41.81.81l1.63-.81-2-5.29-1.63.81a.76.76,0,0,1,0,1.22,1.42,1.42,0,0,1-.81.41,1.85,1.85,0,0,1-2,0c-.41,0-.81-.81-1.22-1.22a3.34,3.34,0,0,1,.41-2.85c.81-.81,2-1.22,3.66-2,1.63-.41,2.85-.81,4.07-.41a2.24,2.24,0,0,1,2,1.22v2.44a10.84,10.84,0,0,1-2,2.44l1.22,1.22,3.66-2.85-.41-.81Zm122.54,41.53a1.5,1.5,0,0,1,1.22-.41l1.63,1.63,2.85,4.48c.41,1.22.81,1.63.81,2s-.41.81-.81,1.22l.81,1.22,5.29-3.26-.81-1.63a1.49,1.49,0,0,1-1.22.41c-.41,0-.81-.82-1.22-1.63l-2.85-4.48a3.72,3.72,0,0,1-1.22-2c.41-.41.41-.81.81-.81l-.81-1.63-5.29,3.26Z" transform="translate(194.6 -85.79)"/><path class="cls-1" d="M-26,183.9c0,33.61-23.88,61.61-55.43,68.75-10.67-3.73-20.05-12.34-27-24.13q3.3.16,6.67.16c31.75,0,58.62-10.58,68.8-25.24-14.25,11.4-37,19.14-62.69,19.14a126.79,126.79,0,0,1-16.44-1.06,89.8,89.8,0,0,1-4.23-11.06,132.37,132.37,0,0,0,23.52,1.13c31.39-1.28,57.48-12.89,66.79-28.1,0,.14,0,.28,0,.41Zm-68.62,70.46c-.88,0-1.77.05-2.65.05a71.18,71.18,0,0,1-65.9-43.56c6.38,5.24,15.11,9.65,25.43,12.77,4.78,10.78,11.33,19.13,18.9,23.79A70.85,70.85,0,0,1-132.61,225a120.17,120.17,0,0,0,13.52,2.54c5.91,13.4,14.54,23.13,24.44,26.79ZM-168,193.13a70.64,70.64,0,0,1-.6-9.22,70.41,70.41,0,0,1,44.19-65.26c-13,12-21.77,35.44-21.77,62.41a118.32,118.32,0,0,0,1.27,17.39A71,71,0,0,1-162,188.79c4,5.35,10.14,10,17.82,13.67a102.62,102.62,0,0,0,2.69,11.06c-11.68-5.16-20.91-12.22-26.45-20.39Zm68-79.69c.87,0,1.75-.05,2.63-.05,34.5,0,63.67,24.57,70,57.23-9.5,19-37.75,33.8-71.63,34.87a123.89,123.89,0,0,1-18.94-.53,106.78,106.78,0,0,1-3-25.53c0-24.83,8.14-47.23,20.76-60.66-15.88,9.77-27.28,35.83-27.28,66.36A117.73,117.73,0,0,0-126,203.8a101.24,101.24,0,0,1-12.82-3.17,111.66,111.66,0,0,1-.86-13.88c0-35.67,17-65.54,39.71-73.31Zm-22.16,106.34A100,100,0,0,1-125,208.9,95.58,95.58,0,0,1-138.13,205a102.5,102.5,0,0,0,2.41,10.8,106.49,106.49,0,0,0,13.64,3.94Z" transform="translate(194.6 -85.79)"/><path class="cls-2" d="M-19.79,183.9a76,76,0,0,1-22.72,54.17A77.78,77.78,0,0,1-97.3,260.6a77.7,77.7,0,0,1-54.84-22.43,76,76,0,0,1-22.67-54.27,76,76,0,0,1,22.67-54.27A77.7,77.7,0,0,1-97.3,107.2a77.79,77.79,0,0,1,54.79,22.53A76,76,0,0,1-19.79,183.9Zm-2,0a74,74,0,0,0-22.14-52.79,75.84,75.84,0,0,0-53.42-22A75.74,75.74,0,0,0-150.77,131a74.11,74.11,0,0,0-22.09,52.88,74.11,74.11,0,0,0,22.09,52.89A75.75,75.75,0,0,0-97.3,258.65a75.84,75.84,0,0,0,53.42-22A74,74,0,0,0-21.74,183.9Z" transform="translate(194.6 -85.79)"/></g></g></svg>