<svg id="图层_1" data-name="图层 1" xmlns="http://www.w3.org/2000/svg" viewBox="0 0 199.3 139.51"><defs><style>.cls-1{fill:#008e3c;}.cls-2{fill:#f6c800;}.cls-3{fill:#203e96;}.cls-4{fill:#fffdf4;}.cls-5{fill:#fff;}.cls-6{fill:#00993b;}.cls-7{fill:#fcfdff;}</style></defs><title>巴西</title><rect class="cls-1" width="199.3" height="139.51"/><polygon class="cls-2" points="99.65 124.17 183.38 69.83 99.14 15.34 15.14 69.96 99.65 124.17"/><path class="cls-3" d="M137.34,100a35.37,35.37,0,1,0,0,.12V100h0Z" transform="translate(-1.21 -30.2)"/><polygon class="cls-4" points="89.07 90.94 87.97 90.3 86.83 90.87 87.09 89.61 86.21 88.68 87.46 88.53 88.06 87.4 88.58 88.57 89.82 88.8 88.89 89.66 89.07 90.94"/><polygon class="cls-4" points="112.81 96.95 111.71 96.31 110.57 96.88 110.83 95.62 109.95 94.69 111.2 94.54 111.8 93.41 112.32 94.58 113.56 94.81 112.63 95.67 112.81 96.95"/><polygon class="cls-4" points="102.58 87.35 101.63 86.8 100.65 87.29 100.87 86.2 100.11 85.4 101.19 85.27 101.7 84.29 102.16 85.3 103.23 85.5 102.42 86.25 102.58 87.35"/><polygon class="cls-4" points="126.55 83.89 125.62 83.36 124.66 83.83 124.87 82.76 124.13 81.98 125.19 81.86 125.69 80.89 126.14 81.89 127.19 82.08 126.4 82.81 126.55 83.89"/><polygon class="cls-4" points="102.14 76.71 101.04 76.07 99.91 76.64 100.16 75.38 99.28 74.45 100.54 74.3 101.13 73.17 101.65 74.34 102.89 74.56 101.97 75.43 102.14 76.71"/><polygon class="cls-4" points="72.91 65.73 71.81 65.1 70.68 65.66 70.93 64.4 70.06 63.48 71.31 63.33 71.9 62.19 72.43 63.37 73.67 63.59 72.74 64.46 72.91 65.73"/><polygon class="cls-4" points="76.43 80.33 75.33 79.69 74.19 80.26 74.45 79 73.57 78.07 74.82 77.93 75.42 76.79 75.94 77.96 77.18 78.19 76.25 79.06 76.43 80.33"/><polygon class="cls-4" points="112.9 60.36 111.93 59.8 110.93 60.3 111.15 59.18 110.38 58.37 111.49 58.23 112.01 57.23 112.47 58.27 113.57 58.47 112.75 59.23 112.9 60.36"/><polygon class="cls-4" points="110.89 69.86 110.13 69.42 109.34 69.81 109.52 68.93 108.91 68.28 109.78 68.18 110.19 67.39 110.56 68.21 111.42 68.36 110.78 68.97 110.89 69.86"/><polygon class="cls-4" points="71.28 82.97 70.55 82.55 69.79 82.92 69.96 82.08 69.37 81.47 70.21 81.37 70.61 80.61 70.96 81.39 71.78 81.54 71.17 82.12 71.28 82.97"/><polygon class="cls-4" points="126.75 86.34 126.16 86.02 125.54 86.3 125.67 85.67 125.2 85.21 125.88 85.14 126.2 84.57 126.49 85.15 127.16 85.27 126.66 85.7 126.75 86.34"/><polygon class="cls-4" points="71.28 82.97 70.55 82.55 69.79 82.92 69.96 82.08 69.37 81.47 70.21 81.37 70.61 80.61 70.96 81.39 71.78 81.54 71.17 82.12 71.28 82.97"/><polygon class="cls-4" points="71.28 82.97 70.55 82.55 69.79 82.92 69.96 82.08 69.37 81.47 70.21 81.37 70.61 80.61 70.96 81.39 71.78 81.54 71.17 82.12 71.28 82.97"/><polygon class="cls-4" points="82.91 82.97 82.18 82.55 81.42 82.92 81.59 82.08 81.01 81.47 81.84 81.37 82.24 80.61 82.59 81.39 83.42 81.54 82.8 82.12 82.91 82.97"/><polygon class="cls-4" points="81.47 86.84 80.73 86.42 79.98 86.8 80.14 85.95 79.56 85.33 80.4 85.24 80.79 84.48 81.14 85.26 81.97 85.41 81.35 85.99 81.47 86.84"/><polygon class="cls-4" points="105.62 79.8 104.89 79.37 104.13 79.75 104.3 78.91 103.71 78.29 104.55 78.19 104.94 77.43 105.29 78.22 106.12 78.37 105.5 78.95 105.62 79.8"/><polygon class="cls-4" points="98.53 79.8 97.8 79.37 97.04 79.75 97.21 78.91 96.63 78.29 97.46 78.19 97.86 77.43 98.21 78.21 99.04 78.36 98.42 78.94 98.53 79.8"/><polygon class="cls-4" points="79.31 77.33 78.85 77.06 78.38 77.3 78.48 76.77 78.11 76.38 78.64 76.32 78.89 75.84 79.11 76.33 79.63 76.43 79.24 76.79 79.31 77.33"/><polygon class="cls-4" points="125.85 89.4 125.12 88.97 124.36 89.35 124.53 88.51 123.94 87.89 124.78 87.79 125.17 87.04 125.52 87.82 126.35 87.97 125.73 88.55 125.85 89.4"/><polygon class="cls-4" points="119.95 90.17 119.34 89.82 118.71 90.13 118.85 89.43 118.37 88.92 119.06 88.84 119.39 88.21 119.68 88.86 120.37 88.98 119.85 89.47 119.95 90.17"/><polygon class="cls-4" points="122.73 90.11 122.17 89.78 121.58 90.07 121.71 89.42 121.26 88.94 121.91 88.86 122.21 88.28 122.48 88.88 123.12 89 122.64 89.45 122.73 90.11"/><polygon class="cls-4" points="130.73 83.13 130.18 82.81 129.62 83.09 129.75 82.47 129.31 82.01 129.93 81.93 130.23 81.37 130.49 81.95 131.1 82.06 130.64 82.49 130.73 83.13"/><polygon class="cls-4" points="119.88 94.11 119.17 93.72 118.43 94.06 118.59 93.29 118.03 92.72 118.84 92.64 119.22 91.94 119.56 92.66 120.37 92.8 119.77 93.33 119.88 94.11"/><polygon class="cls-4" points="119.92 97.29 119.27 96.9 118.6 97.24 118.75 96.47 118.23 95.9 118.97 95.81 119.32 95.12 119.63 95.83 120.37 95.97 119.82 96.5 119.92 97.29"/><polygon class="cls-4" points="114.56 90.1 114.02 89.79 113.45 90.07 113.58 89.44 113.14 88.98 113.76 88.91 114.06 88.35 114.32 88.93 114.93 89.04 114.47 89.47 114.56 90.1"/><polygon class="cls-4" points="109.53 90.1 108.99 89.79 108.43 90.07 108.55 89.44 108.12 88.98 108.74 88.91 109.03 88.35 109.29 88.93 109.91 89.04 109.45 89.47 109.53 90.1"/><polygon class="cls-4" points="101 82.64 100.46 82.33 99.89 82.61 100.02 81.98 99.59 81.52 100.21 81.45 100.5 80.89 100.76 81.47 101.38 81.58 100.92 82.01 101 82.64"/><polygon class="cls-4" points="101.95 97.85 101.49 97.58 101.02 97.82 101.12 97.29 100.75 96.9 101.28 96.84 101.53 96.36 101.75 96.85 102.27 96.95 101.88 97.31 101.95 97.85"/><polygon class="cls-4" points="89.07 73.25 87.97 72.62 86.83 73.18 87.09 71.92 86.21 71 87.47 70.85 88.06 69.71 88.58 70.89 89.82 71.11 88.89 71.98 89.07 73.25"/><path class="cls-5" d="M135,112.68a34.39,34.39,0,0,0,1.61-5.5c-18.81-16.52-39.79-25-66.29-23.25A34.54,34.54,0,0,0,68,89.72,84.77,84.77,0,0,1,135,112.68Z" transform="translate(-1.21 -30.2)"/><path class="cls-6" d="M126.55,103.39l.67.36a1,1,0,0,0-.09.63.91.91,0,0,0,.37.47.94.94,0,0,0,.56.19.52.52,0,0,0,.38-.21.34.34,0,0,0,.06-.24.78.78,0,0,0-.14-.3l-.42-.49a2.06,2.06,0,0,1-.52-.81,1,1,0,0,1,.14-.85,1,1,0,0,1,.45-.37,1.08,1.08,0,0,1,.62-.06,2,2,0,0,1,.71.32,1.65,1.65,0,0,1,.73.89,1.14,1.14,0,0,1-.16.92l-.67-.41a.6.6,0,0,0,.06-.48.76.76,0,0,0-.33-.38.93.93,0,0,0-.52-.19.31.31,0,0,0-.24.13.34.34,0,0,0,0,.26,2.2,2.2,0,0,0,.45.62,3.92,3.92,0,0,1,.55.71,1,1,0,0,1,.13.57,1.25,1.25,0,0,1-.72,1,1.09,1.09,0,0,1-.67.06,2.23,2.23,0,0,1-.78-.36,1.66,1.66,0,0,1-.75-.91A1.5,1.5,0,0,1,126.55,103.39Z" transform="translate(-1.21 -30.2)"/><path class="cls-6" d="M123.36,101.29l.69.34a.89.89,0,0,0-.06.63.76.76,0,0,0,.39.45.84.84,0,0,0,.56.17.46.46,0,0,0,.36-.22.36.36,0,0,0,.06-.24.62.62,0,0,0-.15-.29,6.11,6.11,0,0,0-.45-.48,2.31,2.31,0,0,1-.55-.79,1,1,0,0,1,.11-.86,1.05,1.05,0,0,1,.43-.38,1,1,0,0,1,.62-.08,1.79,1.79,0,0,1,.72.29,1.61,1.61,0,0,1,.77.85,1.11,1.11,0,0,1-.12.93l-.68-.38a.69.69,0,0,0,0-.48.81.81,0,0,0-.35-.37.87.87,0,0,0-.53-.17.3.3,0,0,0-.26.4,2,2,0,0,0,.48.61,4,4,0,0,1,.57.68,1.15,1.15,0,0,1,.15.56,1.06,1.06,0,0,1-.19.61,1.16,1.16,0,0,1-.49.44,1.08,1.08,0,0,1-.67.09,2.38,2.38,0,0,1-.79-.32,1.67,1.67,0,0,1-.78-.89A1.45,1.45,0,0,1,123.36,101.29Z" transform="translate(-1.21 -30.2)"/><polygon class="cls-6" points="118.21 70.04 120.23 66.72 122.68 68.22 122.34 68.78 120.56 67.69 120.11 68.42 121.77 69.44 121.43 70 119.77 68.98 119.22 69.89 121.07 71.02 120.72 71.58 118.21 70.04"/><path class="cls-6" d="M113.67,95.52l.3-.59,1.5.78-.71,1.38a2.15,2.15,0,0,1-.83,0,2.66,2.66,0,0,1-.92-.28,2.05,2.05,0,0,1-.82-.71,1.64,1.64,0,0,1-.27-1,2.35,2.35,0,0,1,.27-1,2.23,2.23,0,0,1,.72-.85,1.7,1.7,0,0,1,1-.3,2,2,0,0,1,.91.25,1.86,1.86,0,0,1,.86.79,1.4,1.4,0,0,1,.09,1l-.76-.23a.84.84,0,0,0-.07-.54.93.93,0,0,0-.42-.41,1.06,1.06,0,0,0-.88-.08,1.34,1.34,0,0,0-.71.72,1.52,1.52,0,0,0-.2,1.07,1,1,0,0,0,.55.67,1.33,1.33,0,0,0,.48.14,1.59,1.59,0,0,0,.49,0l.23-.44Z" transform="translate(-1.21 -30.2)"/><polygon class="cls-6" points="87.4 59.1 87.97 55.25 89.12 55.42 89.43 58.15 90.51 55.63 91.67 55.8 91.1 59.65 90.39 59.54 90.83 56.51 89.62 59.43 88.88 59.32 88.56 56.18 88.12 59.21 87.4 59.1"/><polygon class="cls-6" points="83.48 58.65 83.84 54.77 86.71 55.04 86.65 55.7 84.56 55.5 84.48 56.36 86.42 56.54 86.36 57.2 84.42 57.01 84.32 58.07 86.48 58.27 86.42 58.93 83.48 58.65"/><path class="cls-6" d="M71.72,86.42a2.34,2.34,0,0,1,.21-1,1.75,1.75,0,0,1,.37-.53,1.59,1.59,0,0,1,.51-.33,2.06,2.06,0,0,1,.84-.13A1.78,1.78,0,0,1,75,85a2.4,2.4,0,0,1-.08,3,2,2,0,0,1-2.74-.08A2,2,0,0,1,71.72,86.42Z" transform="translate(-1.21 -30.2)"/><path class="cls-7" d="M72.53,86.42a1.47,1.47,0,0,0,.28,1,1,1,0,0,0,.76.36,1,1,0,0,0,.77-.32,1.47,1.47,0,0,0,.33-1,1.41,1.41,0,0,0-.26-1,1.09,1.09,0,0,0-1.56,0A1.49,1.49,0,0,0,72.53,86.42Z" transform="translate(-1.21 -30.2)"/><path class="cls-6" d="M76.32,88.43l.05-3.89,1.64,0a2.64,2.64,0,0,1,.9.12.86.86,0,0,1,.45.37,1.09,1.09,0,0,1,.16.62,1,1,0,0,1-.26.72,1.18,1.18,0,0,1-.77.35,1.74,1.74,0,0,1,.41.33,3.89,3.89,0,0,1,.44.64l.47.76h-.94l-.56-.85a4.82,4.82,0,0,0-.4-.58.54.54,0,0,0-.24-.16,1.18,1.18,0,0,0-.39-.05h-.16l0,1.62Z" transform="translate(-1.21 -30.2)"/><path class="cls-5" d="M77.13,86.2h.58a2.69,2.69,0,0,0,.7,0,.37.37,0,0,0,.22-.16.46.46,0,0,0,.09-.29.48.48,0,0,0-.11-.32.43.43,0,0,0-.29-.15,5,5,0,0,0-.57,0h-.61Z" transform="translate(-1.21 -30.2)"/><path class="cls-6" d="M80.75,84.73l1.43.07a3.32,3.32,0,0,1,.73.11,1.27,1.27,0,0,1,.57.39,1.91,1.91,0,0,1,.34.65,2.9,2.9,0,0,1,.08.93,2.71,2.71,0,0,1-.16.82,1.71,1.71,0,0,1-.45.66,1.33,1.33,0,0,1-.57.28,2,2,0,0,1-.69,0l-1.48-.07Z" transform="translate(-1.21 -30.2)"/><path class="cls-5" d="M81.5,85.43,81.37,88,82,88a2.29,2.29,0,0,0,.48,0,.79.79,0,0,0,.32-.15.86.86,0,0,0,.23-.36,2.46,2.46,0,0,0,.11-.71,2.82,2.82,0,0,0,0-.7.92.92,0,0,0-.21-.38.73.73,0,0,0-.35-.21,4,4,0,0,0-.64-.07Z" transform="translate(-1.21 -30.2)"/><path class="cls-6" d="M99.81,91.69l.91-3.79,1.22.29a5.27,5.27,0,0,1,.89.28,1,1,0,0,1,.45.5,1.23,1.23,0,0,1,0,.79,1.39,1.39,0,0,1-.27.56,1.14,1.14,0,0,1-.41.29,1.19,1.19,0,0,1-.44.09,5.19,5.19,0,0,1-.8-.14l-.5-.12-.34,1.43Z" transform="translate(-1.21 -30.2)"/><path class="cls-5" d="M101.33,88.72l-.26,1.08.42.1a1.85,1.85,0,0,0,.61.08.45.45,0,0,0,.28-.12.61.61,0,0,0,.16-.28.51.51,0,0,0,0-.37.55.55,0,0,0-.26-.24,4.23,4.23,0,0,0-.55-.16Z" transform="translate(-1.21 -30.2)"/><path class="cls-6" d="M103.41,92.76l1.29-3.67,1.55.55a2.68,2.68,0,0,1,.82.4.84.84,0,0,1,.3.51,1.16,1.16,0,0,1-.52,1.23,1.23,1.23,0,0,1-.84.08,1.84,1.84,0,0,1,.28.45,3.69,3.69,0,0,1,.21.74l.2.88-.88-.31-.26-1a4.85,4.85,0,0,0-.2-.68.51.51,0,0,0-.17-.23,1,1,0,0,0-.35-.17l-.15-.06L104.15,93Z" transform="translate(-1.21 -30.2)"/><path class="cls-5" d="M104.89,90.91l.55.19a2.64,2.64,0,0,0,.68.19.47.47,0,0,0,.26-.08.51.51,0,0,0,.17-.25.42.42,0,0,0,0-.33.55.55,0,0,0-.23-.25l-.53-.2-.58-.2Z" transform="translate(-1.21 -30.2)"/><path class="cls-6" d="M108,92.62a2.38,2.38,0,0,1,.46-.9,1.92,1.92,0,0,1,.5-.4,1.51,1.51,0,0,1,.59-.19,2.12,2.12,0,0,1,.84.11,1.78,1.78,0,0,1,1.15.92,2,2,0,0,1,0,1.57,2,2,0,0,1-.92,1.25,1.79,1.79,0,0,1-1.46.1,1.82,1.82,0,0,1-1.16-.91A2,2,0,0,1,108,92.62Z" transform="translate(-1.21 -30.2)"/><path class="cls-5" d="M108.75,92.84a1.41,1.41,0,0,0,0,1,1,1,0,0,0,1.47.46,1.53,1.53,0,0,0,.59-.88,1.48,1.48,0,0,0,0-1,1,1,0,0,0-.64-.55,1,1,0,0,0-.84.09A1.42,1.42,0,0,0,108.75,92.84Z" transform="translate(-1.21 -30.2)"/><path class="cls-6" d="M115.55,98l1.78-3.46,1.46.76a2.62,2.62,0,0,1,.75.51.89.89,0,0,1,.24.54,1.3,1.3,0,0,1-.13.63,1,1,0,0,1-.56.52,1.25,1.25,0,0,1-.85,0,1.47,1.47,0,0,1,.22.48,4.06,4.06,0,0,1,.11.77l.07.89-.83-.43-.11-1a4.84,4.84,0,0,0-.11-.69.64.64,0,0,0-.13-.26,1.66,1.66,0,0,0-.33-.22L117,97l-.75,1.44Z" transform="translate(-1.21 -30.2)"/><path class="cls-5" d="M117.27,96.41l.52.26a3,3,0,0,0,.64.29.41.41,0,0,0,.27,0,.56.56,0,0,0,.21-.22.5.5,0,0,0,0-.33.47.47,0,0,0-.19-.27l-.51-.28-.54-.28Z" transform="translate(-1.21 -30.2)"/><path class="cls-6" d="M129.94,105.15a2.46,2.46,0,0,1,.7-.73,2.22,2.22,0,0,1,.6-.24,1.57,1.57,0,0,1,.61,0,2.07,2.07,0,0,1,.78.35,1.84,1.84,0,0,1,.84,1.21,2.42,2.42,0,0,1-1.65,2.46,2,2,0,0,1-2.27-1.54A2,2,0,0,1,129.94,105.15Z" transform="translate(-1.21 -30.2)"/><path class="cls-5" d="M130.62,105.58a1.51,1.51,0,0,0-.31,1,1,1,0,0,0,.45.72,1,1,0,0,0,.83.15,1.83,1.83,0,0,0,1.13-1.66,1,1,0,0,0-.46-.71,1,1,0,0,0-.83-.16A1.44,1.44,0,0,0,130.62,105.58Z" transform="translate(-1.21 -30.2)"/><polygon class="cls-6" points="94.21 59.9 94.83 57.17 96.85 57.63 96.75 58.09 95.28 57.76 95.14 58.36 96.51 58.68 96.4 59.14 95.04 58.82 94.86 59.57 96.39 59.92 96.28 60.38 94.21 59.9"/></svg>